<svg width="886" height="873" viewBox="0 0 886 873" fill="none" xmlns="http://www.w3.org/2000/svg">
<path fill-rule="evenodd" clip-rule="evenodd" d="M813.859 5.73269C913.641 39.6345 879.054 203.489 881.178 308.607C882.719 384.896 827.47 449.921 824.373 526.147C821.243 603.205 907.789 687.539 863.232 750.398C817.867 814.397 710.367 769.416 635.361 792.797C576.427 811.167 533.186 879.474 471.767 872.424C410.028 865.337 379.086 794.161 328.776 757.604C281.854 723.508 222.069 709.251 185.401 664.336C144.583 614.336 132.792 550.053 110.071 489.705C73.5171 392.615 -31.4308 294.92 10.7283 200.39C50.2709 111.726 184.074 109.613 281.311 105.746C361.119 102.573 426.375 195.475 504.833 180.74C623.332 158.486 699.522 -33.1144 813.859 5.73269Z" fill="#F4A442"/>
</svg>
