<svg width="546" height="735" viewBox="0 0 546 735" fill="none" xmlns="http://www.w3.org/2000/svg">
<path d="M17.9027 32.4359C17.6526 33.707 17.1182 34.9053 16.3394 35.9416C15.5117 37.1347 14.3898 38.0892 13.5805 39.2822C13.3046 39.686 16.836 43.669 17.4245 43.5772C18.1666 43.4624 18.8653 43.1542 19.4498 42.6836C20.0343 42.2131 20.4841 41.597 20.7536 40.8974C21.3823 39.3745 21.5236 37.6947 21.1582 36.0885C21.1582 35.4094 20.1098 34.5834 19.6868 34.1062C19.0446 33.5822 18.4306 33.0247 17.8476 32.4359H17.9027Z" fill="#F4A442"/>
<path d="M17.3143 99.0821C16.2843 96.6959 13.4519 95.5946 11.116 94.7687C8.78019 93.9427 5.74542 93.025 3.3544 94.1813C2.58192 94.5668 -0.471226 99.6878 0.0621565 100.367C1.29445 101.872 5.17526 101.835 7.05129 102.423C9.35036 103.138 11.8333 104.956 14.2428 104.882C14.9969 104.882 17.5902 99.7612 17.3143 99.0821Z" fill="#F4A442"/>
<path d="M53.6762 0.0580621C51.6332 0.915858 49.8963 2.36773 48.6919 4.22459C47.1153 5.83074 46.0087 7.83638 45.4916 10.0247C46.4845 11.8718 47.9029 13.4571 49.6299 14.6501C51.322 13.5488 52.3152 11.2178 53.5843 9.63925C55.184 8.12926 56.559 6.3986 57.6674 4.49991C57.9065 3.91256 54.2464 -0.125483 53.6578 0.00300006L53.6762 0.0580621Z" fill="#F4A442"/>
<path d="M254.633 87.1147C252.584 87.9625 250.844 89.4167 249.649 91.2813C248.065 92.9038 246.958 94.9291 246.448 97.1365C247.441 98.9836 248.86 100.569 250.587 101.762C252.297 100.661 253.272 98.3295 254.541 96.751C256.146 95.2414 257.527 93.5108 258.642 91.6116C258.863 91.0243 255.203 86.9679 254.633 87.1147Z" fill="#F4A442"/>
<path d="M95.0044 157.138C92.9615 157.979 91.2276 159.427 90.0384 161.286C88.4546 162.909 87.3477 164.934 86.8381 167.142C87.8257 168.997 89.2448 170.59 90.9764 171.785C92.6869 170.666 93.6617 168.353 94.9308 166.774C96.5303 165.253 97.9106 163.517 99.0323 161.617C98.1167 159.79 96.7254 158.243 95.0044 157.138Z" fill="#F4A442"/>
<path d="M245.069 138.508C244.39 139.224 243.958 140.137 243.836 141.114C243.445 142.125 243.331 143.221 243.505 144.29C243.726 145.208 245.069 146.346 245.657 146.988C245.896 147.263 247.294 149.025 247.662 148.823C248.49 148.42 248.398 146.603 248.508 145.74C248.674 144.571 248.674 143.385 248.508 142.216C248.416 141.72 245.381 138.251 245.087 138.545L245.069 138.508Z" fill="#F4A442"/>
<g opacity="0.2">
<path opacity="0.2" d="M245.069 138.508C244.39 139.224 243.958 140.137 243.836 141.114C243.445 142.125 243.331 143.221 243.505 144.29C243.726 145.208 245.069 146.346 245.657 146.988C245.896 147.263 247.294 149.025 247.662 148.823C248.49 148.42 248.398 146.603 248.508 145.74C248.674 144.571 248.674 143.385 248.508 142.216C248.416 141.72 245.381 138.251 245.087 138.545L245.069 138.508Z" fill="black"/>
</g>
<path d="M309.516 236.082C307.327 239.037 304.973 243.02 305.01 246.82C305.01 247.756 308.872 250.876 308.799 251.041C309.626 249.334 309.829 247.37 310.509 245.535C311.224 243.686 312.137 241.92 313.231 240.267C313.654 239.625 309.553 236.137 309.553 236.119L309.516 236.082Z" fill="#F4A442"/>
<path d="M155.056 119.364C151.488 118.483 146.908 117.822 143.395 119.364C142.53 119.731 141.114 124.467 140.912 124.467C142.751 124.577 144.774 123.989 146.705 123.934C148.686 123.894 150.666 124.066 152.61 124.448C153.382 124.577 155.037 119.419 155.056 119.419V119.364Z" fill="#F4A442"/>
<path d="M287.941 131.735C285.348 129.11 281.78 126.229 278.028 125.605C277.09 125.458 273.393 128.762 273.246 128.652C274.809 129.735 276.777 130.267 278.451 131.221C280.162 132.223 281.764 133.397 283.233 134.727C283.803 135.259 287.923 131.717 287.941 131.735Z" fill="#F4A442"/>
<path d="M60.4814 93.2269C60.132 93.2269 59.2491 94.218 60.2055 93.5756C60.3343 93.3737 60.4446 93.2269 60.4814 93.2269Z" fill="#F4A442"/>
<path d="M53.3085 108.682C54.3263 107.851 55.1701 106.828 55.7915 105.671C56.5088 103.23 56.8398 100.752 57.7779 98.3295C58.017 97.7421 58.2745 97.1364 58.5503 96.494C59.0872 94.887 59.7834 93.3376 60.6287 91.8686C58.0009 94.4746 55.7087 97.3972 53.8051 100.569C52.3337 103.157 50.1266 107.599 50.991 110.646C51.7977 110.032 52.5713 109.377 53.3085 108.682Z" fill="#F4A442"/>
<path opacity="0.2" d="M53.3085 108.682C54.3263 107.851 55.1701 106.828 55.7915 105.671C56.5088 103.23 56.8398 100.752 57.7779 98.3295C58.017 97.7421 58.2745 97.1364 58.5503 96.494C59.0872 94.887 59.7834 93.3376 60.6287 91.8686C58.0009 94.4746 55.7087 97.3972 53.8051 100.569C52.3337 103.157 50.1266 107.599 50.991 110.646C51.7977 110.032 52.5713 109.377 53.3085 108.682Z" fill="black"/>
<path d="M59.4699 94.8237C59.4699 94.8237 59.9113 94.0161 60.2056 93.5756C59.2492 94.218 60.2056 93.1718 60.4815 93.2268C60.4815 93.2268 60.3344 93.3737 60.2056 93.5756L60.6838 93.2085C64.8056 90.2007 69.669 88.3672 74.7541 87.9039C75.6553 87.7938 76.8508 86.0685 77.421 85.4811C77.6969 85.1875 79.4625 82.6178 79.6281 82.6178C72.3814 82.526 66.1464 86.2887 61.2356 91.3363L60.6287 91.9604C59.7834 93.4293 59.0872 94.9788 58.5503 96.5858C58.8262 95.9801 59.1389 95.3927 59.4699 94.8237Z" fill="#F4A442"/>
<path d="M381.43 105.121C381.528 106.412 381.34 107.709 380.879 108.92C380.4 110.278 379.573 111.508 379.039 112.866C380.386 114.287 382.059 115.358 383.913 115.987C384.597 115.673 385.185 115.185 385.621 114.574C386.057 113.962 386.324 113.247 386.396 112.499C386.584 110.858 386.263 109.199 385.477 107.746C385.219 107.121 384.079 106.589 383.546 106.24C382.797 105.905 382.067 105.531 381.357 105.121H381.43Z" fill="#F4A442"/>
<path d="M403.557 175.53C401.92 173.511 398.903 173.217 396.439 173.033C393.974 172.85 390.792 172.795 388.788 174.557C388.162 175.126 386.617 180.926 387.298 181.403C388.898 182.504 392.632 181.403 394.655 181.403C397.046 181.403 399.933 182.578 402.214 181.844C402.95 181.623 404.053 176.007 403.612 175.438L403.557 175.53Z" fill="#F4A442"/>
<path d="M438.576 86.0318C436.737 87.0413 435.707 89.5192 434.898 91.373C433.82 93.3641 433.305 95.61 433.408 97.8706C434.859 99.3953 436.657 100.548 438.65 101.23C439.992 99.6877 440.305 97.1915 441.096 95.3376C441.887 93.4838 443.45 91.3363 443.652 89.2806C442.283 87.7627 440.53 86.6405 438.576 86.0318Z" fill="#F4A442"/>
<path d="M463.884 178.613C462.138 179.975 460.853 181.839 460.206 183.954C459.115 185.941 458.593 188.189 458.697 190.452C460.148 191.977 461.946 193.129 463.939 193.811C465.282 192.269 465.595 189.773 466.386 187.919C467.176 186.065 468.74 183.918 468.942 181.862C467.573 180.344 465.819 179.222 463.866 178.613H463.884Z" fill="#F4A442"/>
<path d="M543.487 91.7034C543.025 92.5824 542.857 93.5858 543.009 94.5668C542.903 95.6436 543.094 96.7288 543.56 97.7054C544.002 98.5314 545.602 99.2656 546.338 99.7244C546.65 99.908 548.471 101.23 548.784 100.954C549.464 100.367 548.876 98.6232 548.784 97.7788C548.637 96.6035 548.308 95.458 547.809 94.3832C546.567 93.2232 545.111 92.3133 543.524 91.7034H543.487Z" fill="#F4A442"/>
<g opacity="0.2">
<path opacity="0.2" d="M543.487 91.7034C543.025 92.5824 542.857 93.5858 543.009 94.5668C542.903 95.6436 543.094 96.7288 543.56 97.7054C544.002 98.5314 545.602 99.2656 546.338 99.7244C546.65 99.908 548.471 101.23 548.784 100.954C549.464 100.367 548.876 98.6232 548.784 97.7788C548.637 96.6035 548.308 95.458 547.809 94.3832C546.567 93.2232 545.111 92.3133 543.524 91.7034H543.487Z" fill="black"/>
</g>
<path d="M548.361 118.446C547.055 121.897 545.86 126.357 546.926 129.991C547.184 130.909 551.745 132.855 551.708 133.057C552.04 131.221 551.708 129.165 551.856 127.257C552.047 125.285 552.454 123.34 553.07 121.457C553.29 120.722 548.343 118.465 548.361 118.446Z" fill="#F4A442"/>
<path d="M501.478 95.9984C500.173 99.4308 498.995 103.891 500.044 107.544C500.32 108.443 504.863 110.407 504.844 110.59C505.175 108.755 504.844 106.718 504.991 104.809C505.186 102.839 505.586 100.895 506.187 99.0086C506.408 98.2744 501.478 96.0168 501.478 95.9984Z" fill="#F4A442"/>
<path d="M454.228 130.579C454.596 130.579 455.571 129.734 454.559 130.285C454.412 130.469 454.283 130.597 454.228 130.579Z" fill="#F4A442"/>
<path d="M463.001 115.913C462.174 116.629 460.666 117.62 460.243 118.667C459.286 121.016 458.698 123.475 457.52 125.733C457.226 126.32 456.914 126.889 456.582 127.44C455.891 128.983 455.047 130.452 454.063 131.827C456.941 129.506 459.512 126.829 461.714 123.861C463.443 121.42 466.073 117.217 465.521 114.096C465.411 114.004 463.001 115.858 463.001 115.913Z" fill="#F4A442"/>
<path opacity="0.2" d="M463.001 115.913C462.174 116.629 460.666 117.62 460.243 118.667C459.286 121.016 458.698 123.475 457.52 125.733C457.226 126.32 456.914 126.889 456.582 127.44C455.891 128.983 455.047 130.452 454.063 131.827C456.941 129.506 459.512 126.829 461.714 123.861C463.443 121.42 466.073 117.217 465.521 114.096C465.411 114.004 463.001 115.858 463.001 115.913Z" fill="black"/>
<path d="M455.405 129.092C455.405 129.092 454.89 129.863 454.559 130.285C455.571 129.735 454.559 130.671 454.228 130.579C454.228 130.579 454.412 130.469 454.559 130.285L454.044 130.579C449.646 133.173 444.623 134.525 439.514 134.488C438.613 134.488 437.252 136.067 436.608 136.636C436.314 136.893 434.291 139.279 434.144 139.261C441.335 140.068 447.92 136.874 453.309 132.396L453.971 131.827C454.955 130.452 455.799 128.983 456.49 127.44C456.157 128.009 455.794 128.56 455.405 129.092Z" fill="#F4A442"/>
<path d="M47.1654 310.309C45.1974 309.997 43.2662 309.593 41.3534 309.116C39.4406 308.638 37.5277 308.106 35.6517 307.519C33.7757 306.931 31.9732 306.252 30.134 305.536C28.2947 304.821 26.4555 304.031 24.6162 303.187C26.2899 303.334 27.9453 303.444 29.6006 303.481H32.0652H34.5114C36.3506 304.105 38.1899 304.674 39.9372 305.169C41.6845 305.665 43.6157 306.105 45.4549 306.473C47.2942 306.84 49.1334 307.115 50.9727 307.335C52.8119 307.556 54.6512 307.611 56.4904 307.611C55.019 308.18 53.474 308.73 51.8923 309.171L50.6968 309.501L49.4829 309.776C48.8023 309.978 47.9931 310.144 47.1654 310.309Z" fill="#F4A442"/>
<g opacity="0.2">
<path opacity="0.2" d="M47.1654 310.309C45.1974 309.997 43.2662 309.593 41.3534 309.116C39.4406 308.638 37.5277 308.106 35.6517 307.519C33.7757 306.931 31.9732 306.252 30.134 305.536C28.2947 304.821 26.4555 304.031 24.6162 303.187C26.2899 303.334 27.9453 303.444 29.6006 303.481H32.0652H34.5114C36.3506 304.105 38.1899 304.674 39.9372 305.169C41.6845 305.665 43.6157 306.105 45.4549 306.473C47.2942 306.84 49.1334 307.115 50.9727 307.335C52.8119 307.556 54.6512 307.611 56.4904 307.611C55.019 308.18 53.474 308.73 51.8923 309.171L50.6968 309.501L49.4829 309.776C48.8023 309.978 47.9931 310.144 47.1654 310.309Z" fill="black"/>
</g>
<path d="M343.652 267.34C343.479 266.059 343.592 264.755 343.984 263.522C344.37 262.127 345.124 260.861 345.51 259.484C345.657 259.007 341.004 256.382 340.471 256.639C339.802 256.997 339.24 257.525 338.842 258.17C338.445 258.815 338.226 259.553 338.208 260.31C338.106 261.954 338.518 263.59 339.385 264.991C339.68 265.596 340.857 266.055 341.409 266.386C342.173 266.678 342.922 267.009 343.652 267.377V267.34Z" fill="#F4A442"/>
<path d="M331.274 199.519C331.017 202.107 332.985 204.438 334.64 206.274C336.295 208.109 338.502 210.367 341.188 210.495C342.034 210.495 347.184 207.43 347.018 206.623C346.65 204.787 343.229 202.952 341.868 201.483C340.195 199.758 338.889 196.986 336.737 195.977C336.056 195.628 331.329 198.859 331.219 199.648L331.274 199.519Z" fill="#F4A442"/>
<path d="M344.13 158.019C345.878 159.946 348.931 160.075 351.396 160.093C353.86 160.112 357.042 160.093 358.937 158.129C359.543 157.524 360.776 151.65 360.022 151.228C358.366 150.2 354.706 151.503 352.665 151.54C350.274 151.54 347.331 150.696 345.087 151.54C344.37 151.815 343.56 157.469 344.057 158.019H344.13Z" fill="#F4A442"/>
<path d="M304.017 108.296C305.764 110.223 308.799 110.352 311.263 110.37C313.728 110.389 316.91 110.37 318.804 108.406C319.411 107.819 320.643 101.945 319.889 101.505C318.252 100.495 314.592 101.78 312.624 101.817C310.215 101.817 307.29 100.973 305.028 101.817C304.329 102.092 303.52 107.745 304.017 108.296Z" fill="#F4A442"/>
<path d="M225.37 281.473C227.414 282.334 229.673 282.551 231.844 282.097C234.111 282.077 236.33 281.443 238.263 280.262C238.891 278.256 239.029 276.129 238.668 274.058C236.682 273.618 234.346 274.554 232.323 274.756C230.119 274.673 227.914 274.901 225.775 275.435C225.109 277.371 224.97 279.448 225.37 281.455V281.473Z" fill="#F4A442"/>
<path d="M253.216 336.74C254.869 335.288 256.037 333.366 256.564 331.233C257.527 329.184 257.921 326.915 257.704 324.662C256.141 323.214 254.247 322.168 252.186 321.615C250.954 323.212 250.77 325.727 250.09 327.636C249.063 329.582 248.319 331.665 247.883 333.821C249.342 335.254 251.158 336.274 253.143 336.776L253.216 336.74Z" fill="#F4A442"/>
<path d="M68.2432 270.846C69.8977 269.393 71.0714 267.473 71.609 265.34C72.5766 263.292 72.9645 261.02 72.7309 258.769C71.1614 257.328 69.2696 256.284 67.2132 255.722C65.9625 257.337 65.7786 259.851 65.0981 261.742C64.0711 263.695 63.3279 265.784 62.891 267.946C64.3471 269.38 66.1646 270.395 68.1512 270.883L68.2432 270.846Z" fill="#F4A442"/>
<path d="M44.2226 168.133C45.8701 166.674 47.0423 164.756 47.5884 162.626C48.5454 160.576 48.9328 158.306 48.7104 156.055C47.1408 154.615 45.249 153.57 43.1926 153.008C41.9419 154.605 41.758 157.12 41.0775 159.029C40.0477 160.98 39.3044 163.07 38.8704 165.233C40.3314 166.66 42.147 167.674 44.1306 168.169L44.2226 168.133Z" fill="#F4A442"/>
<path d="M357.373 106.663C359.029 105.214 360.198 103.291 360.721 101.156C361.688 99.1089 362.076 96.8366 361.843 94.5851C360.305 93.1507 358.444 92.1058 356.417 91.5382C355.166 93.1351 355.001 95.6497 354.32 97.5586C353.29 99.5103 352.547 101.6 352.113 103.762C353.571 105.194 355.388 106.208 357.373 106.699V106.663Z" fill="#F4A442"/>
<path d="M136.204 244.507C136.612 243.604 136.721 242.595 136.516 241.625C136.56 240.543 136.306 239.47 135.78 238.523C135.302 237.734 133.647 237.092 132.893 236.688C132.58 236.523 130.686 235.293 130.373 235.605C129.729 236.229 130.373 237.936 130.594 238.762C130.81 239.927 131.201 241.053 131.752 242.102C133.068 243.186 134.579 244.008 136.204 244.525V244.507Z" fill="#F4A442"/>
<g opacity="0.2">
<path opacity="0.2" d="M136.204 244.507C136.612 243.604 136.721 242.595 136.516 241.625C136.56 240.543 136.306 239.47 135.78 238.523C135.302 237.734 133.647 237.092 132.893 236.688C132.58 236.523 130.686 235.293 130.373 235.605C129.729 236.229 130.373 237.936 130.594 238.762C130.81 239.927 131.201 241.053 131.752 242.102C133.068 243.186 134.579 244.008 136.204 244.525V244.507Z" fill="black"/>
</g>
<path d="M261.493 243.13C261.915 242.231 262.031 241.219 261.824 240.249C261.861 239.168 261.607 238.096 261.088 237.147C260.61 236.357 258.955 235.697 258.182 235.311C257.87 235.128 255.975 233.916 255.681 234.21C255.037 234.852 255.681 236.541 255.902 237.385C256.118 238.55 256.508 239.677 257.06 240.726C258.372 241.805 259.876 242.627 261.493 243.149V243.13Z" fill="#F4A442"/>
<g opacity="0.2">
<path opacity="0.2" d="M261.493 243.13C261.915 242.231 262.031 241.219 261.824 240.249C261.861 239.168 261.607 238.096 261.088 237.147C260.61 236.357 258.955 235.697 258.182 235.311C257.87 235.128 255.975 233.916 255.681 234.21C255.037 234.852 255.681 236.541 255.902 237.385C256.118 238.55 256.508 239.677 257.06 240.726C258.372 241.805 259.876 242.627 261.493 243.149V243.13Z" fill="black"/>
</g>
<path d="M174.883 295.258C175.986 291.752 176.924 287.218 175.655 283.639C175.343 282.758 170.671 281.07 170.689 280.868C170.469 282.703 170.947 284.741 170.873 286.668C170.806 288.646 170.516 290.61 170.009 292.523C169.825 293.275 174.901 295.239 174.883 295.258Z" fill="#F4A442"/>
<path d="M184.042 242.69C185.146 239.184 186.084 234.65 184.796 231.071C184.484 230.19 179.83 228.501 179.849 228.3C179.628 230.135 180.106 232.172 180.033 234.1C179.947 236.076 179.658 238.038 179.168 239.955C178.984 240.707 184.042 242.671 184.042 242.69Z" fill="#F4A442"/>
<path d="M112.44 382.627C116.119 382.314 120.662 381.452 123.476 378.956C124.175 378.332 123.972 373.449 124.156 373.321C122.317 373.835 120.662 375.028 118.859 375.688C116.997 376.373 115.067 376.859 113.103 377.138C112.33 377.249 112.44 382.645 112.422 382.645L112.44 382.627Z" fill="#F4A442"/>
<path d="M187.997 342.246C191.289 343.898 195.611 345.532 199.363 344.834C200.283 344.669 202.711 340.355 202.895 340.392C201.056 339.878 199.014 340.025 197.138 339.658C195.188 339.253 193.289 338.638 191.473 337.822C190.756 337.529 188.015 342.209 187.997 342.191V342.246Z" fill="#F4A442"/>
<path d="M22.0597 243.552C22.0597 243.919 23.1817 244.672 22.4276 243.809C22.2068 243.699 22.0597 243.607 22.0597 243.552Z" fill="#F4A442"/>
<path d="M38.3 248.747C37.3484 247.848 36.23 247.144 35.0077 246.673C32.488 246.269 29.9682 246.232 27.5036 245.608L25.6643 245.058C24.0023 244.725 22.3762 244.233 20.8087 243.589C23.7251 245.864 26.9129 247.769 30.2992 249.261C33.0581 250.399 37.6562 252.032 40.6726 250.803C40.7278 250.766 38.3735 248.802 38.3 248.747Z" fill="#F4A442"/>
<path opacity="0.2" d="M38.3 248.747C37.3484 247.848 36.23 247.144 35.0077 246.673C32.488 246.269 29.9682 246.232 27.5036 245.608L25.6643 245.058C24.0023 244.725 22.3762 244.233 20.8087 243.589C23.7251 245.864 26.9129 247.769 30.2992 249.261C33.0581 250.399 37.6562 252.032 40.6726 250.803C40.7278 250.766 38.3735 248.802 38.3 248.747Z" fill="black"/>
<path d="M23.77 244.378C23.77 244.378 22.8872 244.03 22.4274 243.809C23.1815 244.672 22.0411 243.919 22.0595 243.552C22.0595 243.552 22.2067 243.699 22.4274 243.809L22.0043 243.369C18.4947 239.667 16.0653 235.078 14.9784 230.098C14.7577 229.217 12.9368 228.263 12.2379 227.749C11.9253 227.529 9.1296 226.079 9.11121 225.913C9.92048 233.09 14.5002 238.762 20.1467 243.038L20.8272 243.571C22.3947 244.215 24.0208 244.706 25.6828 245.039C25.0023 244.856 24.377 244.635 23.77 244.378Z" fill="#F4A442"/>
<path d="M226.566 188.066C226.253 187.901 225.076 188.617 226.198 188.286C226.382 188.213 226.529 188.066 226.566 188.066Z" fill="#F4A442"/>
<path d="M214.868 200.547C216.092 200.071 217.21 199.36 218.16 198.455C219.632 196.381 220.735 194.123 222.372 192.159C222.795 191.663 223.218 191.186 223.678 190.709C224.699 189.379 225.844 188.15 227.099 187.038C223.794 188.683 220.705 190.73 217.903 193.132C215.677 195.133 212.183 198.638 212.036 201.814C212.017 201.85 214.794 200.584 214.868 200.547Z" fill="#F4A442"/>
<path opacity="0.2" d="M214.868 200.547C216.092 200.071 217.21 199.36 218.16 198.455C219.632 196.381 220.735 194.123 222.372 192.159C222.795 191.663 223.218 191.186 223.678 190.709C224.699 189.379 225.844 188.15 227.099 187.038C223.794 188.683 220.705 190.73 217.903 193.132C215.677 195.133 212.183 198.638 212.036 201.814C212.017 201.85 214.794 200.584 214.868 200.547Z" fill="black"/>
<path d="M225.094 189.332C225.094 189.332 225.775 188.69 226.198 188.36C225.076 188.69 226.198 187.974 226.566 188.139C226.566 188.139 226.382 188.139 226.198 188.36C226.386 188.312 226.571 188.251 226.75 188.176C231.611 186.616 236.807 186.413 241.776 187.589C242.678 187.772 244.351 186.542 245.087 186.12C245.436 185.937 247.938 184.046 248.085 184.101C241.261 181.734 234.125 183.385 227.853 186.579L227.081 186.983C225.826 188.095 224.68 189.324 223.66 190.654C224.119 190.232 224.598 189.773 225.094 189.332Z" fill="#F4A442"/>
<path d="M419.577 221.912C418.956 223.05 418.081 224.03 417.02 224.775C415.88 225.675 414.537 226.281 413.341 227.162C413.694 229.082 414.529 230.882 415.769 232.393C416.516 232.501 417.278 232.409 417.976 232.125C418.675 231.841 419.284 231.376 419.742 230.777C420.791 229.502 421.431 227.942 421.581 226.299C421.692 225.638 421.011 224.574 420.735 223.986C420.625 223.748 419.466 221.986 419.503 221.857L419.577 221.912Z" fill="#F4A442"/>
<path d="M530.263 234.962C529.987 232.374 527.577 230.502 525.591 229.034C523.605 227.565 520.974 225.822 518.326 226.244C517.48 226.372 513.066 230.429 513.397 231.2C514.151 233.035 517.866 234.081 519.485 235.183C521.471 236.541 523.31 239 525.646 239.624C526.382 239.808 530.355 235.697 530.263 234.962Z" fill="#F4A442"/>
<path d="M338.778 363.17C338.297 361.013 337.168 359.054 335.541 357.554C334.216 355.713 332.409 354.272 330.318 353.387C328.317 354.032 326.501 355.146 325.021 356.636C325.83 358.472 327.945 359.885 329.269 361.408C330.594 362.932 331.863 365.245 333.647 366.327C334.18 366.658 338.815 363.758 338.778 363.17Z" fill="#F4A442"/>
<path d="M456.987 322.148C456.012 322.551 455.589 323.432 455.056 324.295C454.379 325.141 453.953 326.158 453.823 327.232C454.017 328.371 454.442 329.458 455.074 330.426C455.24 330.756 456.067 332.848 456.472 332.775C457.373 332.646 457.815 330.939 458.164 330.077C458.667 329.001 459.008 327.857 459.176 326.681C458.748 325.043 458.004 323.503 456.987 322.148Z" fill="#F4A442"/>
<g opacity="0.2">
<path opacity="0.2" d="M456.987 322.148C456.012 322.551 455.589 323.432 455.056 324.295C454.379 325.141 453.953 326.158 453.823 327.232C454.017 328.371 454.442 329.458 455.074 330.426C455.24 330.756 456.067 332.848 456.472 332.775C457.373 332.646 457.815 330.939 458.164 330.077C458.667 329.001 459.008 327.857 459.176 326.681C458.748 325.043 458.004 323.503 456.987 322.148Z" fill="black"/>
</g>
<path d="M472.198 256.676C471.223 257.08 470.8 257.961 470.266 258.824C469.59 259.669 469.163 260.686 469.034 261.76C469.225 262.903 469.658 263.991 470.303 264.954C470.45 265.284 471.278 267.377 471.701 267.303C472.602 267.175 473.025 265.468 473.375 264.605C473.877 263.529 474.218 262.385 474.386 261.21C473.958 259.571 473.215 258.031 472.198 256.676Z" fill="#F4A442"/>
<g opacity="0.2">
<path opacity="0.2" d="M472.198 256.676C471.223 257.08 470.8 257.961 470.266 258.824C469.59 259.669 469.163 260.686 469.034 261.76C469.225 262.903 469.658 263.991 470.303 264.954C470.45 265.284 471.278 267.377 471.701 267.303C472.602 267.175 473.025 265.468 473.375 264.605C473.877 263.529 474.218 262.385 474.386 261.21C473.958 259.571 473.215 258.031 472.198 256.676Z" fill="black"/>
</g>
<path d="M500.816 305.628C501.147 305.5 501.404 304.16 500.816 305.188C500.846 305.333 500.846 305.483 500.816 305.628Z" fill="#F4A442"/>
<path d="M499.363 288.65C498.889 289.878 498.67 291.189 498.72 292.505C499.29 294.964 500.246 297.295 500.559 299.846C500.651 300.489 500.724 301.131 500.761 301.774C501.093 303.436 501.259 305.127 501.258 306.821C502.255 303.264 502.793 299.594 502.858 295.9C502.858 292.908 502.564 287.971 500.301 285.75C500.283 285.658 499.382 288.577 499.363 288.65Z" fill="#F4A442"/>
<path opacity="0.2" d="M499.363 288.65C498.889 289.878 498.67 291.189 498.72 292.505C499.29 294.964 500.246 297.295 500.559 299.846C500.651 300.489 500.724 301.131 500.761 301.774C501.093 303.436 501.259 305.127 501.258 306.821C502.255 303.264 502.793 299.594 502.858 295.9C502.858 292.908 502.564 287.971 500.301 285.75C500.283 285.658 499.382 288.577 499.363 288.65Z" fill="black"/>
<path d="M500.908 303.701C500.908 303.793 500.908 304.637 500.908 305.151C501.423 304.123 501.166 305.463 500.908 305.592C500.938 305.446 500.938 305.296 500.908 305.151C500.908 305.298 500.761 305.463 500.669 305.702C498.6 310.361 495.293 314.366 491.105 317.283C490.369 317.816 490.167 319.871 489.983 320.716C489.891 321.083 489.634 324.203 489.486 324.295C495.813 320.789 499.326 314.383 501.129 307.592C501.129 307.317 501.258 307.042 501.331 306.766C501.333 305.071 501.167 303.381 500.835 301.719C500.871 302.416 500.908 303.077 500.908 303.701Z" fill="#F4A442"/>
<path d="M401.736 321.12C401.736 321.487 403.097 321.946 402.159 321.285C401.92 321.23 401.754 321.175 401.736 321.12Z" fill="#F4A442"/>
<path d="M418.749 322.625C417.619 321.956 416.37 321.514 415.07 321.322C412.532 321.468 410.086 322.001 407.511 321.927C406.867 321.927 406.224 321.927 405.58 321.799C403.885 321.836 402.191 321.706 400.522 321.413C403.86 323.011 407.39 324.177 411.024 324.882C413.967 325.378 418.896 325.965 421.471 324.111C421.545 324.056 418.859 322.661 418.749 322.625Z" fill="#F4A442"/>
<path opacity="0.2" d="M418.749 322.625C417.619 321.956 416.37 321.514 415.07 321.322C412.532 321.468 410.086 322.001 407.511 321.927C406.867 321.927 406.224 321.927 405.58 321.799C403.885 321.836 402.191 321.706 400.522 321.413C403.86 323.011 407.39 324.177 411.024 324.882C413.967 325.378 418.896 325.965 421.471 324.111C421.545 324.056 418.859 322.661 418.749 322.625Z" fill="black"/>
<path d="M403.594 321.542L402.159 321.285C403.097 321.946 401.81 321.487 401.736 321.12C401.736 321.12 401.92 321.23 402.159 321.285L401.663 320.954C397.426 318.107 394.049 314.16 391.896 309.538C391.473 308.73 389.487 308.18 388.696 307.849C388.328 307.684 385.293 306.895 385.238 306.748C387.611 313.576 393.331 318.128 399.713 321.065L400.504 321.413C402.173 321.706 403.867 321.836 405.562 321.799C404.9 321.744 404.238 321.652 403.594 321.542Z" fill="#F4A442"/>
<path d="M280.07 175.346C277.631 177.848 275.668 180.771 274.276 183.973C273.538 185.435 273.03 187.001 272.768 188.617C272.602 190.177 273.54 190.874 274.773 191.627C275.228 191.912 275.701 192.17 276.189 192.398L276.023 192.049C275.866 191.686 275.761 191.303 275.711 190.911H275.6C275.563 190.612 275.563 190.31 275.6 190.012C276.039 187.561 276.878 185.198 278.083 183.018C279.235 180.728 280.622 178.563 282.221 176.557C282.221 176.557 280.29 175.218 280.07 175.346Z" fill="#F4A442"/>
<path d="M293.514 181.954C293.504 182.002 293.504 182.052 293.514 182.101V182.358C293.514 182.578 293.514 182.798 293.514 183C293.016 183.101 292.534 183.268 292.08 183.496C290.42 184.367 288.827 185.361 287.316 186.469C285.753 187.515 284.226 188.598 282.736 189.736C281.458 191.038 279.898 192.031 278.175 192.636C277.507 192.72 276.829 192.605 276.226 192.306L276.06 191.957C275.903 191.594 275.797 191.211 275.747 190.819C276.622 190.454 277.425 189.939 278.12 189.296C280.088 187.754 282.111 186.267 284.171 184.872C285.916 183.503 287.825 182.356 289.854 181.458C290.462 181.261 291.107 181.202 291.741 181.288C292.375 181.374 292.981 181.602 293.514 181.954Z" fill="#F4A442"/>
<path opacity="0.2" d="M293.514 181.954C293.504 182.002 293.504 182.052 293.514 182.101V182.358C293.514 182.578 293.514 182.798 293.514 183C293.016 183.101 292.534 183.268 292.08 183.496C290.42 184.367 288.827 185.361 287.316 186.469C285.753 187.515 284.226 188.598 282.736 189.736C281.458 191.038 279.898 192.031 278.175 192.636C277.507 192.72 276.829 192.605 276.226 192.306L276.06 191.957C275.903 191.594 275.797 191.211 275.747 190.819C276.622 190.454 277.425 189.939 278.12 189.296C280.088 187.754 282.111 186.267 284.171 184.872C285.916 183.503 287.825 182.356 289.854 181.458C290.462 181.261 291.107 181.202 291.741 181.288C292.375 181.374 292.981 181.602 293.514 181.954Z" fill="black"/>
<path d="M295.814 186.653C294.554 188.871 293.16 191.01 291.639 193.058C290.167 195.261 288.733 197.482 287.298 199.703C286.459 200.767 285.806 201.965 285.367 203.245C285.318 203.572 285.341 203.904 285.433 204.221C285.525 204.538 285.684 204.831 285.9 205.081C286.015 205.217 286.144 205.34 286.286 205.448C285.678 205.256 285.107 204.964 284.594 204.585C283.491 203.924 282.314 203.337 282.498 201.869C282.851 200.453 283.531 199.139 284.484 198.033C286.789 194.582 289.07 191.125 291.326 187.662C292.117 186.432 293.68 184.67 293.478 183.037C293.478 182.835 293.478 182.615 293.478 182.394V182.137C293.467 182.089 293.467 182.039 293.478 181.991L294.214 182.413C294.894 182.835 295.795 183.294 296.053 184.083C296.19 184.505 296.239 184.951 296.198 185.392C296.157 185.834 296.026 186.263 295.814 186.653Z" fill="#F4A442"/>
<path d="M304.164 197.243C303.241 200.349 301.574 203.183 299.308 205.503C299.051 205.76 296.568 203.98 296.605 203.906C297.793 202.35 298.851 200.698 299.768 198.969C300.216 198.088 300.609 197.181 300.945 196.252C301.141 195.777 301.265 195.276 301.313 194.765C301.333 194.638 301.333 194.508 301.313 194.38H301.699C301.864 194.362 302.031 194.362 302.196 194.38C302.539 194.453 302.686 194.453 302.637 194.38C302.796 194.362 302.957 194.362 303.115 194.38C303.587 194.67 303.948 195.11 304.138 195.63C304.328 196.15 304.337 196.718 304.164 197.243Z" fill="#F4A442"/>
<path d="M303.115 194.362C302.956 194.344 302.796 194.344 302.637 194.362C302.326 194.316 302.01 194.316 301.699 194.362H301.294C300.908 194.475 300.538 194.635 300.191 194.839C299.352 195.379 298.564 195.993 297.837 196.674L292.999 200.914C291.51 202.346 289.931 203.683 288.272 204.916C288 205.123 287.689 205.272 287.356 205.354C287.024 205.436 286.679 205.449 286.341 205.393C286.199 205.285 286.07 205.162 285.955 205.026C285.739 204.776 285.58 204.483 285.488 204.166C285.396 203.849 285.373 203.517 285.422 203.19C286.286 202.546 287.098 201.834 287.849 201.061L291.914 197.537C293.312 196.326 294.673 195.096 296.089 193.866C296.538 193.41 297.078 193.051 297.673 192.814C298.268 192.577 298.907 192.467 299.547 192.489C300.855 192.824 302.069 193.452 303.097 194.325L303.115 194.362Z" fill="#F4A442"/>
<path opacity="0.2" d="M303.115 194.362C302.956 194.344 302.796 194.344 302.637 194.362C302.326 194.316 302.01 194.316 301.699 194.362H301.294C300.908 194.475 300.538 194.635 300.191 194.839C299.352 195.379 298.564 195.993 297.837 196.674L292.999 200.914C291.51 202.346 289.931 203.683 288.272 204.916C288 205.123 287.689 205.272 287.356 205.354C287.024 205.436 286.679 205.449 286.341 205.393C286.199 205.285 286.07 205.162 285.955 205.026C285.739 204.776 285.58 204.483 285.488 204.166C285.396 203.849 285.373 203.517 285.422 203.19C286.286 202.546 287.098 201.834 287.849 201.061L291.914 197.537C293.312 196.326 294.673 195.096 296.089 193.866C296.538 193.41 297.078 193.051 297.673 192.814C298.268 192.577 298.907 192.467 299.547 192.489C300.855 192.824 302.069 193.452 303.097 194.325L303.115 194.362Z" fill="black"/>
<path d="M302.196 194.288C302.031 194.27 301.864 194.27 301.699 194.288C302.01 194.242 302.326 194.242 302.637 194.288C302.637 194.288 302.545 194.362 302.196 194.288Z" fill="#F4A442"/>
<path d="M300.633 304.197C302.378 302.3 303.767 300.105 304.734 297.717C305.22 296.639 305.543 295.495 305.69 294.322C305.69 293.184 305.01 292.743 304.054 292.266C303.689 292.085 303.315 291.926 302.932 291.789L303.079 292.027C303.214 292.28 303.307 292.553 303.355 292.835H303.447C303.474 293.048 303.474 293.264 303.447 293.477C303.193 295.264 302.64 296.995 301.81 298.598C301.014 300.32 300.033 301.951 298.885 303.462C298.885 303.462 300.467 304.38 300.633 304.197Z" fill="#F4A442"/>
<path d="M290.112 300.214C290.103 300.177 290.103 300.14 290.112 300.103C290.103 300.043 290.103 299.981 290.112 299.92C290.103 299.767 290.103 299.614 290.112 299.461C290.484 299.341 290.847 299.194 291.197 299.021C292.418 298.302 293.592 297.505 294.71 296.634C295.85 295.79 296.972 294.927 298.076 294.046C299.018 293.038 300.165 292.243 301.442 291.715C301.941 291.629 302.454 291.673 302.931 291.844L303.078 292.082C303.214 292.335 303.307 292.608 303.354 292.89C302.707 293.199 302.116 293.615 301.607 294.12C300.172 295.313 298.683 296.488 297.156 297.607C295.873 298.687 294.465 299.612 292.963 300.36C292.505 300.541 292.013 300.621 291.521 300.596C291.029 300.571 290.549 300.44 290.112 300.214Z" fill="#F4A442"/>
<path opacity="0.2" d="M290.112 300.214C290.103 300.177 290.103 300.14 290.112 300.103C290.103 300.043 290.103 299.981 290.112 299.92C290.103 299.767 290.103 299.614 290.112 299.461C290.484 299.341 290.847 299.194 291.197 299.021C292.418 298.302 293.592 297.505 294.71 296.634C295.85 295.79 296.972 294.927 298.076 294.046C299.018 293.038 300.165 292.243 301.442 291.715C301.941 291.629 302.454 291.673 302.931 291.844L303.078 292.082C303.214 292.335 303.307 292.608 303.354 292.89C302.707 293.199 302.116 293.615 301.607 294.12C300.172 295.313 298.683 296.488 297.156 297.607C295.873 298.687 294.465 299.612 292.963 300.36C292.505 300.541 292.013 300.621 291.521 300.596C291.029 300.571 290.549 300.44 290.112 300.214Z" fill="black"/>
<path d="M288.273 296.983C289.147 295.318 290.131 293.712 291.215 292.174C292.245 290.522 293.257 288.852 294.268 287.182C294.864 286.384 295.318 285.49 295.611 284.539C295.634 284.307 295.605 284.072 295.525 283.853C295.446 283.634 295.318 283.436 295.151 283.272C295.055 283.183 294.95 283.103 294.839 283.033C295.307 283.107 295.761 283.256 296.181 283.474C297.064 283.878 298.021 284.245 297.892 285.31C297.669 286.355 297.195 287.331 296.512 288.154C294.894 290.743 293.275 293.349 291.694 295.937C291.123 296.873 290.001 298.213 290.222 299.369C290.213 299.522 290.213 299.675 290.222 299.828C290.213 299.889 290.213 299.951 290.222 300.012C290.214 300.048 290.214 300.086 290.222 300.122L289.652 299.865C289.1 299.59 288.401 299.314 288.125 298.764C288.019 298.474 287.977 298.165 288.003 297.857C288.028 297.55 288.12 297.252 288.273 296.983Z" fill="#F4A442"/>
<path d="M281.431 289.861C282.026 287.556 283.189 285.436 284.815 283.694C284.999 283.492 286.948 284.63 286.912 284.685C286.078 285.851 285.334 287.078 284.686 288.356C284.385 289.008 284.12 289.676 283.895 290.357C283.767 290.705 283.693 291.07 283.674 291.44C283.663 291.531 283.663 291.624 283.674 291.715H283.38H282.994C282.718 291.715 282.608 291.715 282.663 291.715H282.295C281.963 291.548 281.698 291.274 281.541 290.938C281.384 290.602 281.345 290.222 281.431 289.861Z" fill="#F4A442"/>
<path d="M282.332 291.862H282.7C282.938 291.889 283.179 291.889 283.417 291.862H283.711C283.998 291.771 284.27 291.642 284.521 291.477C285.138 291.037 285.716 290.546 286.249 290.008L289.781 286.76C290.871 285.647 292.026 284.599 293.239 283.621C293.652 283.301 294.17 283.144 294.692 283.18C294.803 283.249 294.908 283.329 295.004 283.419C295.171 283.582 295.299 283.781 295.378 284C295.458 284.219 295.487 284.453 295.464 284.685C294.804 285.181 294.188 285.734 293.625 286.337L290.756 289.017C289.744 289.953 288.732 290.853 287.702 291.825C287.37 292.183 286.97 292.472 286.524 292.673C286.079 292.875 285.598 292.986 285.109 293C284.122 292.853 283.18 292.49 282.35 291.936L282.332 291.862Z" fill="#F4A442"/>
<path opacity="0.2" d="M282.332 291.862H282.7C282.938 291.889 283.179 291.889 283.417 291.862H283.711C283.998 291.771 284.27 291.642 284.521 291.477C285.138 291.037 285.716 290.546 286.249 290.008L289.781 286.76C290.871 285.647 292.026 284.599 293.239 283.621C293.652 283.301 294.17 283.144 294.692 283.18C294.803 283.249 294.908 283.329 295.004 283.419C295.171 283.582 295.299 283.781 295.378 284C295.458 284.219 295.487 284.453 295.464 284.685C294.804 285.181 294.188 285.734 293.625 286.337L290.756 289.017C289.744 289.953 288.732 290.853 287.702 291.825C287.37 292.183 286.97 292.472 286.524 292.673C286.079 292.875 285.598 292.986 285.109 293C284.122 292.853 283.18 292.49 282.35 291.936L282.332 291.862Z" fill="black"/>
<path d="M283.031 291.862H283.417C283.179 291.889 282.938 291.889 282.7 291.862C282.7 291.862 282.755 291.825 283.031 291.862Z" fill="#F4A442"/>
<path d="M397.083 279.344C395.93 277.839 394.955 276.207 394.177 274.48C393.33 272.884 392.776 271.15 392.54 269.359C392.512 269.146 392.512 268.93 392.54 268.717H392.632C392.688 268.443 392.78 268.177 392.908 267.928C392.946 267.842 392.995 267.762 393.055 267.689C392.67 267.821 392.295 267.981 391.933 268.166C390.976 268.625 390.222 269.066 390.296 270.204C390.439 271.38 390.768 272.526 391.271 273.599C392.224 275.999 393.614 278.202 395.372 280.097C395.556 280.299 397.101 279.363 397.083 279.344Z" fill="#F4A442"/>
<path d="M405.984 276.169V276.059C405.993 276.004 405.993 275.948 405.984 275.894C406.003 275.735 406.003 275.575 405.984 275.416C405.604 275.319 405.239 275.171 404.899 274.976C403.671 274.268 402.497 273.47 401.386 272.59C400.228 271.764 399.106 270.901 398.002 270.002C397.068 268.989 395.918 268.198 394.636 267.689C394.137 267.593 393.621 267.638 393.146 267.817C393.087 267.89 393.037 267.97 392.999 268.056C392.872 268.305 392.779 268.571 392.723 268.845C393.37 269.157 393.96 269.572 394.471 270.075C395.924 271.286 397.395 272.443 398.922 273.562C400.212 274.643 401.626 275.567 403.134 276.316C403.592 276.496 404.083 276.577 404.575 276.551C405.067 276.526 405.547 276.396 405.984 276.169Z" fill="#F4A442"/>
<path opacity="0.2" d="M405.984 276.169V276.059C405.993 276.004 405.993 275.948 405.984 275.894C406.003 275.735 406.003 275.575 405.984 275.416C405.604 275.319 405.239 275.171 404.899 274.976C403.671 274.268 402.497 273.47 401.386 272.59C400.228 271.764 399.106 270.901 398.002 270.002C397.068 268.989 395.918 268.198 394.636 267.689C394.137 267.593 393.621 267.638 393.146 267.817C393.087 267.89 393.037 267.97 392.999 268.056C392.872 268.305 392.779 268.571 392.723 268.845C393.37 269.157 393.96 269.572 394.471 270.075C395.924 271.286 397.395 272.443 398.922 273.562C400.212 274.643 401.626 275.567 403.134 276.316C403.592 276.496 404.083 276.577 404.575 276.551C405.067 276.526 405.547 276.396 405.984 276.169Z" fill="black"/>
<path d="M407.824 272.902C406.934 271.241 405.945 269.635 404.863 268.093C403.833 266.441 402.84 264.771 401.81 263.1C401.217 262.303 400.768 261.409 400.485 260.457C400.462 260.224 400.493 259.988 400.576 259.768C400.659 259.548 400.791 259.351 400.964 259.191C401.054 259.108 401.153 259.034 401.258 258.97C400.787 259.036 400.333 259.185 399.915 259.411C399.051 259.815 398.076 260.163 398.223 261.246C398.443 262.295 398.909 263.277 399.584 264.11C401.215 266.704 402.821 269.298 404.403 271.892C404.973 272.81 406.095 274.15 405.893 275.306C405.911 275.465 405.911 275.625 405.893 275.783C405.902 275.838 405.902 275.894 405.893 275.949V276.169L406.463 275.912C407.066 275.706 407.596 275.33 407.989 274.829C408.105 274.515 408.151 274.18 408.122 273.847C408.094 273.514 407.992 273.191 407.824 272.902Z" fill="#F4A442"/>
<path d="M414.611 265.78C414 263.481 412.838 261.365 411.226 259.613C411.043 259.429 409.075 260.567 409.111 260.604C409.945 261.77 410.689 262.997 411.337 264.275C411.635 264.928 411.899 265.595 412.128 266.276C412.254 266.63 412.328 267.001 412.348 267.377C412.369 267.461 412.369 267.549 412.348 267.634H412.643H413.029C413.305 267.634 413.415 267.634 413.378 267.634H413.728C414.056 267.462 414.32 267.189 414.48 266.854C414.639 266.52 414.685 266.143 414.611 265.78Z" fill="#F4A442"/>
<path d="M413.691 267.799H413.342C413.098 267.836 412.85 267.836 412.606 267.799H412.312C412.019 267.702 411.74 267.566 411.484 267.395C410.862 266.961 410.283 266.47 409.755 265.927L406.242 262.678C405.147 261.576 403.993 260.534 402.784 259.558C402.581 259.391 402.346 259.265 402.093 259.19C401.84 259.114 401.575 259.09 401.313 259.117C401.208 259.181 401.109 259.254 401.019 259.337C400.847 259.498 400.714 259.695 400.631 259.915C400.548 260.135 400.517 260.37 400.54 260.604C401.192 261.111 401.807 261.663 402.38 262.256L405.359 265.009C406.371 265.945 407.364 266.845 408.394 267.817C408.726 268.175 409.127 268.464 409.572 268.665C410.017 268.867 410.499 268.978 410.987 268.992C411.981 268.839 412.93 268.469 413.765 267.909L413.691 267.799Z" fill="#F4A442"/>
<path opacity="0.2" d="M413.691 267.799H413.342C413.098 267.836 412.85 267.836 412.606 267.799H412.312C412.019 267.702 411.74 267.566 411.484 267.395C410.862 266.961 410.283 266.47 409.755 265.927L406.242 262.678C405.147 261.576 403.993 260.534 402.784 259.558C402.581 259.391 402.346 259.265 402.093 259.19C401.84 259.114 401.575 259.09 401.313 259.117C401.208 259.181 401.109 259.254 401.019 259.337C400.847 259.498 400.714 259.695 400.631 259.915C400.548 260.135 400.517 260.37 400.54 260.604C401.192 261.111 401.807 261.663 402.38 262.256L405.359 265.009C406.371 265.945 407.364 266.845 408.394 267.817C408.726 268.175 409.127 268.464 409.572 268.665C410.017 268.867 410.499 268.978 410.987 268.992C411.981 268.839 412.93 268.469 413.765 267.909L413.691 267.799Z" fill="black"/>
<path d="M412.992 267.781H412.606C412.85 267.818 413.098 267.818 413.342 267.781C413.342 267.781 413.342 267.762 412.992 267.781Z" fill="#F4A442"/>
<path d="M335.578 315.76V315.338C335.394 314.922 335.394 315.063 335.578 315.76Z" fill="#F4A442"/>
<path d="M335.56 314.016C335.614 313.391 335.744 312.775 335.946 312.181C336.402 310.853 337.157 309.648 338.153 308.657C338.645 308.172 339.188 307.742 339.772 307.372C340.452 306.931 340.967 306.454 341.611 305.977C341.612 305.197 341.422 304.428 341.059 303.738C340.663 303.673 340.259 303.673 339.863 303.738C339.551 303.82 339.253 303.95 338.981 304.123C338.368 304.462 337.8 304.875 337.289 305.353C336.35 306.233 335.621 307.312 335.155 308.51C334.394 310.953 334.426 313.575 335.247 315.999C335.297 315.431 335.383 314.867 335.504 314.31C335.504 314.31 335.56 314.108 335.56 314.016Z" fill="#F4A442"/>
<path d="M338.999 322.258C338.992 322.325 338.992 322.392 338.999 322.46V322.239V322.258Z" fill="#F4A442"/>
<path d="M339.771 325.727C339.957 324.086 339.723 322.425 339.091 320.899C339.118 321.272 339.118 321.646 339.091 322.019V322.184C339.091 322.533 339.091 322.606 339.091 322.441V322.588C339.034 323.056 338.91 323.513 338.723 323.946C338.475 324.55 338.147 325.118 337.748 325.635C336.64 326.927 335.408 328.107 334.07 329.159C333.702 329.489 334.861 331.949 334.769 332.004C336.001 331.372 337.085 330.485 337.947 329.403C338.81 328.32 339.432 327.067 339.771 325.727Z" fill="#F4A442"/>
<path d="M339.771 325.727C339.957 324.086 339.723 322.425 339.091 320.899C339.118 321.272 339.118 321.646 339.091 322.019V322.184C339.091 322.533 339.091 322.606 339.091 322.441V322.588C339.034 323.056 338.91 323.513 338.723 323.946C338.475 324.55 338.147 325.118 337.748 325.635C336.64 326.927 335.408 328.107 334.07 329.159C333.702 329.489 334.861 331.949 334.769 332.004C336.001 331.372 337.085 330.485 337.947 329.403C338.81 328.32 339.432 327.067 339.771 325.727Z" fill="#F4A442"/>
<path d="M339.036 322.239V322.056C339.036 322.056 339.036 322.184 339.036 322.239V322.46C339.091 322.661 339.109 322.588 339.036 322.239Z" fill="#F4A442"/>
<path d="M339.036 322.056C339.063 321.683 339.063 321.309 339.036 320.936C338.753 320.179 338.369 319.463 337.895 318.807C337.454 318.22 336.957 317.687 336.498 317.1C336.038 316.513 335.854 315.778 335.449 315.265V315.687C335.265 315.026 335.265 314.879 335.449 315.246C335.449 314.879 335.449 314.549 335.449 314.182C335.328 314.738 335.242 315.302 335.192 315.87C335.475 317.066 335.914 318.22 336.498 319.303C336.823 319.86 337.205 320.383 337.638 320.863C337.914 321.193 338.208 321.487 338.484 321.836L338.742 322.166C338.776 322.244 338.819 322.318 338.87 322.386C338.863 322.319 338.863 322.251 338.87 322.184C338.999 321.872 339.017 321.817 339.036 322.056Z" fill="#F4A442"/>
<path opacity="0.2" d="M339.036 322.056C339.063 321.683 339.063 321.309 339.036 320.936C338.753 320.179 338.369 319.463 337.895 318.807C337.454 318.22 336.957 317.687 336.498 317.1C336.038 316.513 335.854 315.778 335.449 315.265V315.687C335.265 315.026 335.265 314.879 335.449 315.246C335.449 314.879 335.449 314.549 335.449 314.182C335.328 314.738 335.242 315.302 335.192 315.87C335.475 317.066 335.914 318.22 336.498 319.303C336.823 319.86 337.205 320.383 337.638 320.863C337.914 321.193 338.208 321.487 338.484 321.836L338.742 322.166C338.776 322.244 338.819 322.318 338.87 322.386C338.863 322.319 338.863 322.251 338.87 322.184C338.999 321.872 339.017 321.817 339.036 322.056Z" fill="black"/>
<path d="M273.673 250.145C272.639 250.145 266.809 257.637 266.477 256.372C263.71 252.686 260.707 249.183 257.488 245.883C256.284 244.565 255.475 242.935 255.155 241.18C254.834 239.426 255.014 237.616 255.674 235.958L257.995 230.12C258.44 228.994 259.148 227.989 260.06 227.19C260.972 226.391 262.063 225.822 263.24 225.528L269.968 228.213L270.689 236.464L273.673 250.145Z" fill="#DD8C6A"/>
<path d="M275.584 255.204L275.486 244.774C275.486 244.774 268.213 242.264 264.742 246.72C261.271 251.176 262.265 253.745 262.265 253.745C264.217 257.281 267.222 260.124 270.865 261.879C277.514 265.44 275.584 255.204 275.584 255.204Z" fill="#F4A442"/>
<path opacity="0.2" d="M275.584 255.204L275.486 244.774C275.486 244.774 268.213 242.264 264.742 246.72C261.271 251.176 262.265 253.745 262.265 253.745C264.217 257.281 267.222 260.124 270.865 261.879C277.514 265.44 275.584 255.204 275.584 255.204Z" fill="black"/>
<path d="M342.976 326.564C334.103 318.78 316.904 305.586 305.399 296.674C300.095 292.568 288.298 270.013 281.999 260.926C280.125 258.742 277.968 256.818 275.584 255.204L269.227 260.867C268.538 261.808 268.065 262.888 267.843 264.032C267.62 265.176 267.653 266.354 267.94 267.484C272.425 279.899 286.816 308.681 291.847 313.682C306.511 328.238 334.201 352.115 339.817 351.648C348.221 350.987 349.801 332.538 342.976 326.564Z" fill="#F4A442"/>
<path opacity="0.2" d="M342.976 326.564C334.103 318.78 316.904 305.586 305.399 296.674C300.095 292.568 288.298 270.013 281.999 260.926C280.125 258.742 277.968 256.818 275.584 255.204L269.227 260.867C268.538 261.808 268.065 262.888 267.843 264.032C267.62 265.176 267.653 266.354 267.94 267.484C272.425 279.899 286.816 308.681 291.847 313.682C306.511 328.238 334.201 352.115 339.817 351.648C348.221 350.987 349.801 332.538 342.976 326.564Z" fill="white"/>
<path d="M432.617 732.344C433.634 730.101 435.018 728.042 436.712 726.253C436.712 726.253 443.635 714.869 438.799 694.728L448.198 686.788C450.719 686.855 453.117 687.894 454.886 689.688C456.044 691.003 457.094 692.409 458.026 693.891C461.321 699.729 468.497 713.196 468.497 713.196L467.093 713.954C464.734 709.958 462.129 706.11 459.293 702.434C456.329 698.99 456.271 705.022 457.343 710.218C458.416 715.414 454.906 723.432 446.014 728.588C435.679 734.64 431.135 736.567 432.617 732.344Z" fill="#263238"/>
<path d="M450.05 705.217C450.05 708.622 452.195 714.655 449.056 719.092C447.667 721.132 445.837 722.835 443.701 724.074C441.564 725.314 439.176 726.058 436.712 726.253C436.712 726.253 442.133 717.399 440.047 701.461C439.759 699.201 439.343 696.96 438.799 694.747C438.799 694.747 446.93 688.909 450.635 688.209L452.488 693.521C452.134 697.017 451.395 700.463 450.284 703.796C450.119 704.251 450.039 704.733 450.05 705.217Z" fill="#DD8C6A"/>
<path d="M452.488 693.521C452.134 697.017 451.395 700.463 450.284 703.796C450.118 704.251 450.039 704.733 450.05 705.217L442.426 708.272L440.047 701.461L431.623 677.175L444.941 671.804L450.635 688.209L452.488 693.521Z" fill="#DD8C6A"/>
<path opacity="0.2" d="M444.317 669.994L430.901 675.365L434.548 685.835C434.548 685.835 444.2 687.781 448.198 681.184L448.724 682.721L444.317 669.994Z" fill="black"/>
<path d="M331.861 722.964C333.926 721.627 336.199 720.64 338.588 720.045C338.588 720.045 350.581 714.207 357.386 694.631L369.847 692.354C370.926 692.899 371.883 693.658 372.657 694.585C373.432 695.512 374.008 696.587 374.351 697.744C374.41 699.907 374.332 702.071 374.117 704.224C373.766 710.977 372.362 728.413 372.362 728.413L370.763 728.316C370.965 722.945 370.893 717.567 370.549 712.203C369.905 707.708 366.649 712.748 364.699 717.671C362.749 722.595 355.514 727.401 345.199 727.051C333.109 726.506 328.253 725.65 331.861 722.964Z" fill="#263238"/>
<path d="M367.663 702.123C366.228 704.534 364.372 706.669 362.183 708.428C359.668 710.277 358.693 718.275 352.882 720.649C350.605 721.615 348.141 722.063 345.669 721.962C343.197 721.861 340.779 721.213 338.588 720.065C338.588 720.065 347.636 715.628 354.461 701.636C356.042 698.401 356.548 694.747 355.904 691.206L351.79 668.321L366.883 666.628L370.178 694.047C370.42 696.962 369.518 699.858 367.663 702.123Z" fill="#DD8C6A"/>
<path opacity="0.2" d="M350.21 657.345L353.506 677.856H354.637C356.904 678.398 359.261 678.456 361.553 678.027C363.844 677.597 366.019 676.691 367.936 675.365H367.702L365.498 655.905L350.21 657.345Z" fill="black"/>
<path d="M406.155 336.275C406.295 335.334 406.327 334.381 406.252 333.434C405.219 322.789 406.681 310.568 396.015 311.619C391.522 314.377 386.434 316.024 381.175 316.426H380.707C371.638 317.439 362.652 319.09 353.817 321.368C352.315 321.738 350.775 322.205 349.273 322.672C347.206 323.334 345.178 323.996 343.248 324.618C334.063 327.79 334.999 337.773 333.069 347.25C330.748 358.634 327.316 361.651 345.705 395.005C348.396 399.928 345.841 412.655 351.165 416.411C363.43 425.09 409.333 410.768 409.333 410.768C409.333 410.768 400.129 371.322 406.155 336.275Z" fill="#F4A442"/>
<g opacity="0.2">
<path opacity="0.2" d="M406.155 336.275C406.295 335.334 406.327 334.381 406.252 333.434C405.219 322.789 406.681 310.568 396.015 311.619C391.522 314.377 386.434 316.024 381.175 316.426H380.707C371.638 317.439 362.652 319.09 353.817 321.368C352.315 321.738 350.775 322.205 349.273 322.672C347.206 323.334 345.178 323.996 343.248 324.618C334.063 327.79 334.999 337.773 333.069 347.25C330.748 358.634 327.316 361.651 345.705 395.005C348.396 399.928 345.841 412.655 351.165 416.411C363.43 425.09 409.333 410.768 409.333 410.768C409.333 410.768 400.129 371.322 406.155 336.275Z" fill="white"/>
</g>
<path d="M351.166 416.547C351.166 416.547 346.505 491.663 342.547 549.362C339.388 595.229 346.934 673.789 346.934 673.789C355.036 676.017 363.691 674.983 371.036 670.909C371.036 670.909 375.892 598.771 373.123 554.986C390.848 491.352 416.257 431.337 398.746 407.479L351.166 416.547Z" fill="#263238"/>
<path opacity="0.3" d="M378.427 461.15L403.016 447.683C399.311 470.413 389.873 498.902 380.63 529.415C374.351 504.993 371.641 479.578 378.427 461.15Z" fill="black"/>
<path d="M362.651 414.329C362.651 414.329 376.75 477.087 386.051 533.035C389.854 573.239 431.116 683.714 431.116 683.714L438.584 682.41C442.133 681.802 445.442 680.218 448.139 677.837L450.694 675.579C450.694 675.579 439.306 595.793 427.45 564.657C428.932 499.972 432.11 427.717 408.145 405.552L362.651 414.329Z" fill="#263238"/>
<path d="M352.024 323.684C350.795 327.245 348.982 333.648 350.522 336.236C350.737 334.815 353.642 330.203 355.729 332.344C356.41 332.998 357.013 333.729 357.523 334.523L361.423 340.79C361.969 341.685 362.69 342.736 363.743 342.736C364.796 342.736 365.947 341.607 366.61 340.517L370.666 333.784C371.477 332.145 372.7 330.744 374.215 329.717C375.794 328.822 381.469 330.807 382.385 332.383C382.6 328.218 383.711 319.403 383.399 316.99C383.087 314.577 378.29 311.152 375.892 310.665C374.256 310.477 372.599 310.753 371.114 311.463C364.328 314.071 354.676 316.075 352.024 323.684Z" fill="white"/>
<path d="M372.265 299.301C372.967 306.131 374.761 313.059 378.817 315.783C378.817 315.783 383.087 321.271 368.599 331.527C366.2 333.375 362.632 335.321 360.506 333.161C356.06 328.51 356.08 324.287 356.821 321.641C357.277 320.199 358.145 318.921 359.317 317.963C362.515 315.063 360.545 311.6 357.698 301.091L364.406 297.063C364.964 296.417 365.695 295.943 366.514 295.699C367.332 295.455 368.204 295.451 369.025 295.687C369.846 295.922 370.583 296.388 371.146 297.029C371.71 297.669 372.078 298.458 372.206 299.301H372.265Z" fill="#DD8C6A"/>
<path opacity="0.2" d="M364.426 297.005C364.948 296.368 365.637 295.888 366.415 295.616C367.193 295.345 368.031 295.293 368.838 295.465C369.644 295.638 370.386 296.03 370.984 296.597C371.582 297.163 372.011 297.884 372.226 298.678C369.748 304.082 365.663 308.594 360.526 311.6C360.311 308.856 358.225 306.053 357.25 303.465C356.938 302.609 358.069 301.889 357.679 301.052L364.426 297.005Z" fill="black"/>
<path d="M365.069 250.845C363.407 249.464 361.42 248.526 359.296 248.117C357.172 247.709 354.979 247.844 352.921 248.51C348.817 249.89 345.129 252.279 342.196 255.457C336.742 260.724 332.716 267.286 330.496 274.528C328.326 281.805 328.704 289.602 331.568 296.635C332.869 300.034 335.157 302.968 338.14 305.061C340.609 306.478 343.403 307.236 346.251 307.263C349.099 307.291 351.906 306.586 354.403 305.217C359.362 302.398 363.418 298.235 366.103 293.21C369.847 286.827 376.106 270.948 370.315 258.824C369.082 255.86 367.303 253.154 365.069 250.845Z" fill="#263238"/>
<path d="M374.546 298.114C368.521 300.488 365.245 302.648 363.841 301.461C362.066 299.924 367.409 292.645 367.838 290.33C368.281 287.885 369.241 285.561 370.653 283.515C372.065 281.468 373.897 279.745 376.028 278.459C378.195 277.231 380.644 276.585 383.136 276.585C385.628 276.585 388.077 277.231 390.244 278.459C391.506 279.186 392.598 280.173 393.449 281.354C394.299 282.535 394.889 283.883 395.177 285.309C395.645 288.247 393.091 290.096 390.965 291.789C386.324 295.467 380.201 295.895 374.546 298.114Z" fill="#263238"/>
<path d="M377.335 274.275C376.906 288.072 377.023 293.91 370.393 301.344C360.409 312.495 343.873 309.342 340.168 295.779C336.892 283.577 338.12 263.086 351.224 256.859C364.328 250.631 377.744 260.478 377.335 274.275Z" fill="#DD8C6A"/>
<path d="M372.401 274.587C369.593 275.968 369.925 288.948 376.594 288.481C383.263 288.014 381.508 270.072 372.401 274.587Z" fill="#263238"/>
<path d="M380.786 286.905C380.225 289.516 378.683 291.814 376.477 293.327C373.532 295.273 371.056 292.918 371.036 289.571C371.017 286.224 372.518 281.904 375.872 281.281C376.612 281.157 377.371 281.224 378.077 281.477C378.783 281.729 379.412 282.157 379.905 282.721C380.398 283.285 380.738 283.966 380.892 284.698C381.046 285.431 381.01 286.19 380.786 286.905Z" fill="#DD8C6A"/>
<path d="M363.529 249.405C344.672 252.616 345.979 265.11 362.242 273.108C371.251 277.525 383.224 287.664 375.56 303.835C373.123 308.992 403.933 289.882 395.294 278.537C378.7 256.975 378.056 244.599 363.529 249.405Z" fill="#263238"/>
<path d="M354.695 279.685C354.695 280.794 354.208 281.748 353.447 281.767C352.687 281.787 352.121 280.931 352.082 279.821C352.043 278.712 352.589 277.739 353.33 277.72C354.071 277.7 354.656 278.556 354.695 279.685Z" fill="#263238"/>
<path d="M342.215 280.327C342.215 281.437 341.728 282.371 340.967 282.41C340.207 282.448 339.641 281.592 339.602 280.464C339.563 279.335 340.109 278.401 340.85 278.362C341.591 278.323 342.176 279.218 342.215 280.327Z" fill="#263238"/>
<path d="M341.201 278.381L338.53 277.739C338.53 277.739 339.934 279.821 341.201 278.381Z" fill="#263238"/>
<path d="M346.447 281.748C345.633 284.694 344.433 287.521 342.878 290.155C343.545 290.527 344.286 290.746 345.049 290.796C345.811 290.847 346.575 290.727 347.285 290.446L346.447 281.748Z" fill="#C13B37"/>
<path d="M358.595 274.879C358.485 274.856 358.388 274.794 358.322 274.703C357.837 274.075 357.209 273.571 356.49 273.233C355.772 272.894 354.982 272.731 354.188 272.757C354.018 272.774 353.848 272.725 353.714 272.62C353.579 272.515 353.491 272.362 353.467 272.193C353.45 272.02 353.502 271.848 353.612 271.714C353.721 271.579 353.879 271.493 354.052 271.473C355.077 271.406 356.103 271.594 357.039 272.018C357.974 272.442 358.79 273.091 359.414 273.906C359.519 274.046 359.565 274.222 359.543 274.396C359.522 274.57 359.433 274.729 359.297 274.84C359.198 274.916 359.077 274.96 358.952 274.967C358.827 274.974 358.703 274.943 358.595 274.879Z" fill="#263238"/>
<path d="M337.145 274.626V274.509C337.099 274.436 337.068 274.355 337.054 274.271C337.04 274.186 337.043 274.099 337.063 274.016C337.083 273.933 337.12 273.854 337.171 273.785C337.222 273.716 337.286 273.658 337.36 273.614C338.224 273.068 339.208 272.74 340.227 272.659C341.246 272.577 342.27 272.745 343.21 273.147C343.368 273.227 343.487 273.366 343.542 273.534C343.597 273.702 343.582 273.884 343.502 274.042C343.422 274.199 343.283 274.318 343.114 274.373C342.946 274.428 342.763 274.414 342.605 274.334C341.85 274.01 341.026 273.877 340.207 273.945C339.388 274.013 338.598 274.28 337.906 274.723C337.785 274.79 337.646 274.817 337.509 274.8C337.372 274.782 337.245 274.721 337.145 274.626Z" fill="#263238"/>
<path d="M353.642 277.759L350.971 277.116C350.971 277.116 352.394 279.16 353.642 277.759Z" fill="#263238"/>
<path d="M347.051 293.677C351.534 292.399 356.144 291.616 360.799 291.342C360.563 293.286 359.629 295.079 358.17 296.389C356.71 297.699 354.825 298.436 352.862 298.464C352.165 298.536 351.46 298.469 350.788 298.267C350.117 298.065 349.492 297.731 348.952 297.286C348.411 296.84 347.964 296.291 347.638 295.672C347.312 295.052 347.112 294.374 347.051 293.677Z" fill="#263238"/>
<path d="M354.949 295.487C352.901 295.554 350.945 296.348 349.43 297.725C350.442 298.352 351.643 298.607 352.823 298.445C354.871 298.377 356.827 297.583 358.342 296.207C357.329 295.579 356.129 295.324 354.949 295.487Z" fill="#FF5652"/>
<path d="M347.5 293.521C347.619 293.921 347.849 294.279 348.163 294.554C348.476 294.83 348.862 295.011 349.274 295.078C352.307 294.778 355.303 294.192 358.225 293.327C358.718 293.219 359.173 292.982 359.543 292.64C359.914 292.298 360.186 291.863 360.331 291.381C355.999 291.72 351.706 292.436 347.5 293.521Z" fill="white"/>
<path d="M465.007 237.515L459.157 220.643L474.484 220.488C474.564 225.757 474.139 231.022 473.216 236.211L465.007 237.515Z" fill="#DD8C6A"/>
<path d="M464.266 210.018L467.912 210.369C468.651 210.436 469.358 210.704 469.956 211.143C470.554 211.582 471.021 212.175 471.305 212.859L474.484 220.449L459.157 220.605L459.8 213.716C459.849 213.18 460.004 212.659 460.255 212.183C460.506 211.707 460.849 211.285 461.264 210.942C461.678 210.598 462.157 210.34 462.672 210.181C463.188 210.023 463.729 209.967 464.266 210.018Z" fill="#DD8C6A"/>
<path d="M463.603 232.534L469.199 231.891C470.167 231.806 471.14 231.962 472.032 232.346C472.924 232.729 473.706 233.329 474.308 234.089C474.91 234.85 475.312 235.749 475.479 236.703C475.646 237.658 475.572 238.639 475.264 239.559L472.495 247.148L462.004 245.397L463.603 232.534Z" fill="#F4A442"/>
<path opacity="0.2" d="M463.603 232.534L469.55 231.852C470.488 231.743 471.439 231.874 472.312 232.235C473.185 232.595 473.951 233.172 474.537 233.911C475.123 234.651 475.51 235.527 475.661 236.458C475.813 237.388 475.723 238.342 475.4 239.228L472.495 247.245L462.004 245.494L463.603 232.534Z" fill="black"/>
<path d="M473.353 248.218C473.353 248.218 462.55 295.487 407.501 338.707C393.266 349.916 380.552 319.909 395.977 311.561C407.423 305.353 432.364 292.879 442.075 276.883C451.786 260.887 451.688 249.444 461.965 245.338C472.241 241.232 473.353 248.218 473.353 248.218Z" fill="#F4A442"/>
<path opacity="0.2" d="M473.353 248.218C473.353 248.218 462.55 295.487 407.501 338.707C393.266 349.916 380.552 319.909 395.977 311.561C407.423 305.353 432.364 292.879 442.075 276.883C451.786 260.887 451.688 249.444 461.965 245.338C472.241 241.232 473.353 248.218 473.353 248.218Z" fill="white"/>
</svg>
