<svg width="545" height="740" viewBox="0 0 545 740" fill="none" xmlns="http://www.w3.org/2000/svg">
<path d="M140.633 87.1147C138.584 87.9625 136.844 89.4167 135.649 91.2813C134.065 92.9038 132.958 94.9291 132.448 97.1365C133.441 98.9836 134.86 100.569 136.587 101.762C138.297 100.661 139.272 98.3295 140.541 96.751C142.146 95.2414 143.527 93.5108 144.642 91.6116C144.863 91.0243 141.203 86.9679 140.633 87.1147Z" fill="#F4A442"/>
<path d="M131.068 138.508C130.39 139.224 129.958 140.137 129.836 141.114C129.445 142.125 129.331 143.221 129.505 144.29C129.726 145.208 131.068 146.346 131.657 146.988C131.896 147.263 133.294 149.025 133.662 148.823C134.489 148.42 134.398 146.603 134.508 145.74C134.673 144.571 134.673 143.385 134.508 142.216C134.416 141.72 131.381 138.251 131.087 138.545L131.068 138.508Z" fill="#F4A442"/>
<g opacity="0.2">
<path opacity="0.2" d="M131.068 138.508C130.39 139.224 129.958 140.137 129.836 141.114C129.445 142.125 129.331 143.221 129.505 144.29C129.726 145.208 131.068 146.346 131.657 146.988C131.896 147.263 133.294 149.025 133.662 148.823C134.489 148.42 134.398 146.603 134.508 145.74C134.673 144.571 134.673 143.385 134.508 142.216C134.416 141.72 131.381 138.251 131.087 138.545L131.068 138.508Z" fill="black"/>
</g>
<path d="M522.902 36.272C519.776 34.3448 515.545 32.3441 511.867 32.6011C510.91 32.6928 508.188 36.7859 507.949 36.7125C509.788 37.3916 511.775 37.4284 513.614 37.9607C515.529 38.5149 517.378 39.2717 519.132 40.2183C519.812 40.5854 522.957 36.1802 522.976 36.1802L522.902 36.272Z" fill="#F4A442"/>
<path d="M195.516 236.082C193.327 239.037 190.973 243.02 191.01 246.82C191.01 247.756 194.872 250.876 194.799 251.041C195.626 249.334 195.829 247.37 196.509 245.535C197.224 243.686 198.137 241.92 199.231 240.267C199.654 239.625 195.553 236.137 195.553 236.119L195.516 236.082Z" fill="#F4A442"/>
<path d="M41.0557 119.364C37.4876 118.483 32.9078 117.822 29.3948 119.364C28.5304 119.731 27.1142 124.467 26.9119 124.467C28.7511 124.577 30.7743 123.989 32.7055 123.934C34.6863 123.894 36.6657 124.066 38.6095 124.448C39.382 124.577 41.0373 119.419 41.0557 119.419V119.364Z" fill="#F4A442"/>
<path d="M173.941 131.735C171.348 129.11 167.78 126.229 164.028 125.605C163.09 125.458 159.393 128.762 159.246 128.652C160.809 129.735 162.777 130.267 164.451 131.221C166.162 132.223 167.764 133.397 169.233 134.727C169.803 135.259 173.923 131.717 173.941 131.735Z" fill="#F4A442"/>
<path d="M522.222 62.1522C523.583 63.6023 524.87 65.089 526.084 66.6492C527.298 68.2093 528.494 69.7695 529.616 71.3847C530.738 72.9999 531.786 74.6702 532.816 76.3589C533.846 78.0475 534.766 79.7728 535.667 81.6083C534.416 80.452 533.184 79.3507 531.896 78.3228C531.271 77.7844 530.627 77.2705 529.965 76.781C529.34 76.2854 528.678 75.7899 528.016 75.3126C526.986 73.7341 525.9 72.1739 524.76 70.6689C523.62 69.1638 522.443 67.6954 521.192 66.2637C519.941 64.832 518.654 63.4921 517.311 62.1706C515.961 60.8723 514.543 59.6469 513.062 58.4996C514.622 58.9433 516.157 59.4703 517.661 60.0781L518.819 60.537L519.96 61.051C520.72 61.4058 521.474 61.7729 522.222 62.1522Z" fill="#F4A442"/>
<g opacity="0.2">
<path opacity="0.2" d="M522.222 62.1522C523.583 63.6023 524.87 65.089 526.084 66.6492C527.298 68.2093 528.494 69.7695 529.616 71.3847C530.738 72.9999 531.786 74.6702 532.816 76.3589C533.846 78.0475 534.766 79.7728 535.667 81.6083C534.416 80.452 533.184 79.3507 531.896 78.3228C531.271 77.7844 530.627 77.2705 529.965 76.781C529.34 76.2854 528.678 75.7899 528.016 75.3126C526.986 73.7341 525.9 72.1739 524.76 70.6689C523.62 69.1638 522.443 67.6954 521.192 66.2637C519.941 64.832 518.654 63.4921 517.311 62.1706C515.961 60.8723 514.543 59.6469 513.062 58.4996C514.622 58.9433 516.157 59.4703 517.661 60.0781L518.819 60.537L519.96 61.051C520.72 61.4058 521.474 61.7729 522.222 62.1522Z" fill="black"/>
</g>
<path d="M267.431 105.121C267.528 106.412 267.34 107.709 266.879 108.92C266.401 110.278 265.573 111.508 265.04 112.866C266.386 114.287 268.059 115.358 269.914 115.987C270.597 115.673 271.185 115.185 271.621 114.574C272.057 113.962 272.324 113.247 272.397 112.499C272.584 110.858 272.263 109.199 271.477 107.746C271.219 107.121 270.079 106.589 269.546 106.24C268.797 105.905 268.067 105.531 267.357 105.121H267.431Z" fill="#F4A442"/>
<path d="M289.557 175.53C287.92 173.511 284.904 173.217 282.439 173.033C279.974 172.85 276.792 172.795 274.788 174.557C274.162 175.126 272.617 180.926 273.298 181.403C274.898 182.504 278.632 181.403 280.655 181.403C283.046 181.403 285.934 182.578 288.214 181.844C288.95 181.623 290.053 176.007 289.612 175.438L289.557 175.53Z" fill="#F4A442"/>
<path d="M324.576 86.0318C322.737 87.0413 321.707 89.5192 320.898 91.373C319.82 93.3641 319.305 95.61 319.408 97.8706C320.859 99.3953 322.657 100.548 324.65 101.23C325.992 99.6877 326.305 97.1915 327.096 95.3376C327.887 93.4838 329.45 91.3363 329.652 89.2806C328.283 87.7627 326.53 86.6405 324.576 86.0318Z" fill="#F4A442"/>
<path d="M511.278 113.344C509.532 114.705 508.248 116.57 507.6 118.685C506.509 120.671 505.987 122.92 506.092 125.183C507.549 126.699 509.345 127.851 511.334 128.541C512.676 127 512.989 124.503 513.78 122.65C514.571 120.796 516.134 118.667 516.336 116.592C516.336 115.968 511.793 113.05 511.26 113.344H511.278Z" fill="#F4A442"/>
<path d="M349.884 178.613C348.138 179.975 346.853 181.839 346.206 183.954C345.115 185.941 344.593 188.189 344.697 190.452C346.148 191.977 347.946 193.129 349.939 193.811C351.282 192.269 351.595 189.773 352.386 187.919C353.176 186.065 354.74 183.918 354.942 181.862C353.573 180.344 351.819 179.222 349.866 178.613H349.884Z" fill="#F4A442"/>
<path d="M463.531 142.803C463.067 143.681 462.899 144.685 463.053 145.666C462.942 146.742 463.126 147.827 463.587 148.805C464.046 149.631 465.647 150.365 466.382 150.824C466.676 151.008 468.497 152.329 468.828 152.054C469.509 151.448 468.92 149.723 468.828 148.879C468.673 147.705 468.344 146.561 467.854 145.483C466.611 144.323 465.156 143.413 463.568 142.803H463.531Z" fill="#F4A442"/>
<g opacity="0.2">
<path opacity="0.2" d="M463.531 142.803C463.067 143.681 462.899 144.685 463.053 145.666C462.942 146.742 463.126 147.827 463.587 148.805C464.046 149.631 465.647 150.365 466.382 150.824C466.676 151.008 468.497 152.329 468.828 152.054C469.509 151.448 468.92 149.723 468.828 148.879C468.673 147.705 468.344 146.561 467.854 145.483C466.611 144.323 465.156 143.413 463.568 142.803H463.531Z" fill="black"/>
</g>
<path d="M429.487 91.7034C429.025 92.5824 428.857 93.5858 429.009 94.5668C428.903 95.6436 429.094 96.7288 429.56 97.7054C430.002 98.5314 431.602 99.2656 432.338 99.7244C432.65 99.908 434.471 101.23 434.784 100.954C435.464 100.367 434.876 98.6232 434.784 97.7788C434.637 96.6035 434.308 95.458 433.809 94.3832C432.567 93.2232 431.111 92.3133 429.524 91.7034H429.487Z" fill="#F4A442"/>
<g opacity="0.2">
<path opacity="0.2" d="M429.487 91.7034C429.025 92.5824 428.857 93.5858 429.009 94.5668C428.903 95.6436 429.094 96.7288 429.56 97.7054C430.002 98.5314 431.602 99.2656 432.338 99.7244C432.65 99.908 434.471 101.23 434.784 100.954C435.464 100.367 434.876 98.6232 434.784 97.7788C434.637 96.6035 434.308 95.458 433.809 94.3832C432.567 93.2232 431.111 92.3133 429.524 91.7034H429.487Z" fill="black"/>
</g>
<path d="M486.632 62.7212C485.308 66.1536 484.131 70.6138 485.198 74.2664C485.455 75.1658 490.017 77.1297 489.98 77.3133C490.311 75.4778 489.98 73.4404 490.127 71.5315C490.321 69.5617 490.722 67.6177 491.322 65.7314C491.562 64.9972 486.614 62.7396 486.632 62.7212Z" fill="#F4A442"/>
<path d="M434.361 118.446C433.055 121.897 431.86 126.357 432.926 129.991C433.184 130.909 437.745 132.855 437.708 133.057C438.04 131.221 437.708 129.165 437.856 127.257C438.047 125.285 438.454 123.34 439.07 121.457C439.29 120.722 434.343 118.465 434.361 118.446Z" fill="#F4A442"/>
<path d="M387.478 95.9984C386.173 99.4308 384.995 103.891 386.044 107.544C386.32 108.443 390.863 110.407 390.844 110.59C391.175 108.755 390.844 106.718 390.991 104.809C391.186 102.839 391.586 100.895 392.187 99.0086C392.408 98.2744 387.478 96.0168 387.478 95.9984Z" fill="#F4A442"/>
<path d="M524.429 157.524C520.751 157.524 516.152 158.221 513.191 160.589C512.456 161.176 512.364 166.095 512.18 166.095C514.019 165.691 515.766 164.59 517.605 164.04C519.503 163.463 521.458 163.094 523.436 162.938C524.208 162.938 524.411 157.432 524.429 157.432V157.524Z" fill="#F4A442"/>
<path d="M466.474 193.572C463.274 191.737 459.117 189.901 455.273 190.324C454.335 190.434 451.595 194.619 451.484 194.563C453.324 195.188 455.347 195.151 457.204 195.628C459.111 196.133 460.96 196.834 462.722 197.721C463.403 198.069 466.401 193.554 466.401 193.572H466.474Z" fill="#F4A442"/>
<path d="M340.228 130.579C340.596 130.579 341.571 129.734 340.559 130.285C340.412 130.469 340.283 130.597 340.228 130.579Z" fill="#F4A442"/>
<path d="M349.001 115.913C348.174 116.629 346.666 117.62 346.243 118.667C345.286 121.016 344.698 123.475 343.52 125.733C343.226 126.32 342.914 126.889 342.582 127.44C341.891 128.983 341.047 130.452 340.063 131.827C342.941 129.506 345.512 126.829 347.714 123.861C349.443 121.42 352.073 117.217 351.521 114.096C351.411 114.004 349.001 115.858 349.001 115.913Z" fill="#F4A442"/>
<path opacity="0.2" d="M349.001 115.913C348.174 116.629 346.666 117.62 346.243 118.667C345.286 121.016 344.698 123.475 343.52 125.733C343.226 126.32 342.914 126.889 342.582 127.44C341.891 128.983 341.047 130.452 340.063 131.827C342.941 129.506 345.512 126.829 347.714 123.861C349.443 121.42 352.073 117.217 351.521 114.096C351.411 114.004 349.001 115.858 349.001 115.913Z" fill="black"/>
<path d="M341.405 129.092C341.405 129.092 340.89 129.863 340.559 130.285C341.571 129.735 340.559 130.671 340.228 130.579C340.228 130.579 340.412 130.469 340.559 130.285L340.044 130.579C335.646 133.173 330.623 134.525 325.514 134.488C324.613 134.488 323.252 136.067 322.608 136.636C322.314 136.893 320.291 139.279 320.144 139.261C327.335 140.068 333.92 136.874 339.309 132.396L339.971 131.827C340.955 130.452 341.799 128.983 342.49 127.44C342.157 128.009 341.794 128.56 341.405 129.092Z" fill="#F4A442"/>
<path d="M229.652 267.34C229.479 266.059 229.592 264.755 229.983 263.522C230.37 262.127 231.124 260.861 231.51 259.484C231.657 259.007 227.004 256.382 226.47 256.639C225.801 256.997 225.24 257.525 224.842 258.17C224.445 258.815 224.226 259.553 224.208 260.31C224.106 261.954 224.517 263.59 225.385 264.991C225.68 265.596 226.857 266.055 227.408 266.386C228.173 266.678 228.921 267.009 229.652 267.377V267.34Z" fill="#F4A442"/>
<path d="M217.274 199.519C217.017 202.107 218.985 204.438 220.64 206.274C222.295 208.109 224.502 210.367 227.188 210.495C228.034 210.495 233.184 207.43 233.018 206.623C232.65 204.787 229.229 202.952 227.868 201.483C226.195 199.758 224.889 196.986 222.737 195.977C222.056 195.628 217.329 198.859 217.219 199.648L217.274 199.519Z" fill="#F4A442"/>
<path d="M230.13 158.019C231.878 159.946 234.931 160.075 237.396 160.093C239.86 160.112 243.042 160.093 244.937 158.129C245.543 157.524 246.776 151.65 246.022 151.228C244.366 150.2 240.706 151.503 238.665 151.54C236.274 151.54 233.331 150.696 231.087 151.54C230.37 151.815 229.56 157.469 230.057 158.019H230.13Z" fill="#F4A442"/>
<path d="M190.017 108.296C191.764 110.223 194.799 110.352 197.263 110.37C199.728 110.389 202.91 110.37 204.804 108.406C205.411 107.819 206.643 101.945 205.889 101.505C204.252 100.495 200.592 101.78 198.624 101.817C196.215 101.817 193.29 100.973 191.028 101.817C190.329 102.092 189.52 107.745 190.017 108.296Z" fill="#F4A442"/>
<path d="M111.37 281.473C113.414 282.334 115.673 282.551 117.844 282.097C120.111 282.077 122.33 281.443 124.263 280.262C124.891 278.256 125.029 276.129 124.668 274.058C122.682 273.618 120.346 274.554 118.323 274.756C116.119 274.673 113.914 274.901 111.775 275.435C111.109 277.371 110.97 279.448 111.37 281.455V281.473Z" fill="#F4A442"/>
<path d="M139.216 336.74C140.869 335.288 142.037 333.366 142.564 331.233C143.527 329.184 143.921 326.915 143.704 324.662C142.141 323.214 140.247 322.168 138.186 321.615C136.954 323.212 136.77 325.727 136.09 327.636C135.063 329.582 134.319 331.665 133.883 333.821C135.342 335.254 137.158 336.274 139.143 336.776L139.216 336.74Z" fill="#F4A442"/>
<path d="M243.373 106.663C245.029 105.214 246.198 103.291 246.721 101.156C247.688 99.1089 248.076 96.8366 247.843 94.5851C246.305 93.1507 244.444 92.1058 242.417 91.5382C241.166 93.1351 241.001 95.6497 240.32 97.5586C239.29 99.5103 238.547 101.6 238.113 103.762C239.571 105.194 241.388 106.208 243.373 106.699V106.663Z" fill="#F4A442"/>
<path d="M22.2035 244.507C22.6119 243.604 22.7214 242.595 22.5162 241.625C22.5603 240.543 22.3058 239.47 21.7805 238.523C21.3023 237.734 19.6469 237.092 18.8928 236.688C18.5802 236.523 16.6857 235.293 16.373 235.605C15.7293 236.229 16.3731 237.936 16.5938 238.762C16.81 239.927 17.2006 241.053 17.7525 242.102C19.0677 243.186 20.5786 244.008 22.2035 244.525V244.507Z" fill="#F4A442"/>
<g opacity="0.2">
<path opacity="0.2" d="M22.2035 244.507C22.6119 243.604 22.7214 242.595 22.5162 241.625C22.5603 240.543 22.3058 239.47 21.7805 238.523C21.3023 237.734 19.6469 237.092 18.8928 236.688C18.5802 236.523 16.6857 235.293 16.373 235.605C15.7293 236.229 16.3731 237.936 16.5938 238.762C16.81 239.927 17.2006 241.053 17.7525 242.102C19.0677 243.186 20.5786 244.008 22.2035 244.525V244.507Z" fill="black"/>
</g>
<path d="M147.493 243.13C147.915 242.231 148.031 241.219 147.824 240.249C147.861 239.168 147.607 238.096 147.088 237.147C146.61 236.357 144.955 235.697 144.182 235.311C143.87 235.128 141.975 233.916 141.681 234.21C141.037 234.852 141.681 236.541 141.902 237.385C142.118 238.55 142.508 239.677 143.06 240.726C144.372 241.805 145.876 242.627 147.493 243.149V243.13Z" fill="#F4A442"/>
<g opacity="0.2">
<path opacity="0.2" d="M147.493 243.13C147.915 242.231 148.031 241.219 147.824 240.249C147.861 239.168 147.607 238.096 147.088 237.147C146.61 236.357 144.955 235.697 144.182 235.311C143.87 235.128 141.975 233.916 141.681 234.21C141.037 234.852 141.681 236.541 141.902 237.385C142.118 238.55 142.508 239.677 143.06 240.726C144.372 241.805 145.876 242.627 147.493 243.149V243.13Z" fill="black"/>
</g>
<path d="M60.8828 295.258C61.9864 291.752 62.9244 287.218 61.6553 283.639C61.3426 282.758 56.6709 281.07 56.6893 280.868C56.4686 282.703 56.9468 284.741 56.8732 286.668C56.806 288.646 56.516 290.61 56.0088 292.523C55.8249 293.275 60.9012 295.239 60.8828 295.258Z" fill="#F4A442"/>
<path d="M70.0423 242.69C71.1458 239.184 72.0838 234.65 70.7964 231.071C70.4837 230.19 65.8304 228.501 65.8488 228.3C65.6281 230.135 66.1062 232.172 66.0327 234.1C65.9473 236.076 65.6576 238.038 65.1682 239.955C64.9843 240.707 70.0423 242.671 70.0423 242.69Z" fill="#F4A442"/>
<path d="M-1.55974 382.627C2.11874 382.314 6.66166 381.452 9.4757 378.956C10.1746 378.332 9.97232 373.449 10.1562 373.321C8.317 373.835 6.66167 375.028 4.85922 375.688C2.99696 376.373 1.06725 376.859 -0.897615 377.138C-1.6701 377.249 -1.55973 382.645 -1.57812 382.645L-1.55974 382.627Z" fill="#F4A442"/>
<path d="M73.9968 342.246C77.2891 343.898 81.6113 345.532 85.3634 344.834C86.283 344.669 88.7108 340.355 88.8948 340.392C87.0555 339.878 85.0139 340.025 83.1379 339.658C81.1884 339.253 79.2889 338.638 77.473 337.822C76.7557 337.529 74.0152 342.209 73.9968 342.191V342.246Z" fill="#F4A442"/>
<path d="M112.566 188.066C112.253 187.901 111.076 188.617 112.198 188.286C112.382 188.213 112.529 188.066 112.566 188.066Z" fill="#F4A442"/>
<path d="M100.868 200.547C102.092 200.071 103.21 199.36 104.16 198.455C105.632 196.381 106.735 194.123 108.372 192.159C108.795 191.663 109.218 191.186 109.678 190.709C110.698 189.379 111.844 188.15 113.099 187.038C109.793 188.683 106.705 190.73 103.903 193.132C101.677 195.133 98.1826 198.638 98.0355 201.814C98.0171 201.85 100.794 200.584 100.868 200.547Z" fill="#F4A442"/>
<path opacity="0.2" d="M100.868 200.547C102.092 200.071 103.21 199.36 104.16 198.455C105.632 196.381 106.735 194.123 108.372 192.159C108.795 191.663 109.218 191.186 109.678 190.709C110.698 189.379 111.844 188.15 113.099 187.038C109.793 188.683 106.705 190.73 103.903 193.132C101.677 195.133 98.1826 198.638 98.0355 201.814C98.0171 201.85 100.794 200.584 100.868 200.547Z" fill="black"/>
<path d="M111.094 189.332C111.094 189.332 111.775 188.69 112.198 188.36C111.076 188.69 112.198 187.974 112.566 188.139C112.566 188.139 112.382 188.139 112.198 188.36C112.386 188.312 112.571 188.251 112.75 188.176C117.611 186.616 122.807 186.413 127.776 187.589C128.678 187.772 130.351 186.542 131.087 186.12C131.436 185.937 133.938 184.046 134.085 184.101C127.261 181.734 120.125 183.385 113.853 186.579L113.081 186.983C111.826 188.095 110.68 189.324 109.66 190.654C110.119 190.232 110.598 189.773 111.094 189.332Z" fill="#F4A442"/>
<path d="M494.78 193.15C496.178 194.545 497.521 195.995 498.79 197.5C500.059 199.005 501.291 200.547 502.468 202.126C503.645 203.704 504.749 205.338 505.834 206.99C506.919 208.642 507.912 210.33 508.85 212.074C507.581 210.973 506.294 209.908 504.988 208.917C504.326 208.421 503.682 207.926 503.002 207.449L500.997 206.054C499.912 204.512 498.771 202.988 497.576 201.52C496.38 200.052 495.148 198.62 493.897 197.243C492.647 195.867 491.249 194.545 489.869 193.297C488.478 192.053 487.016 190.888 485.492 189.81C487.068 190.196 488.621 190.668 490.145 191.223L491.304 191.664L492.463 192.141C493.254 192.453 494.008 192.783 494.78 193.15Z" fill="#F4A442"/>
<g opacity="0.2">
<path opacity="0.2" d="M494.78 193.15C496.178 194.545 497.521 195.995 498.79 197.5C500.059 199.005 501.291 200.547 502.468 202.126C503.645 203.704 504.749 205.338 505.834 206.99C506.919 208.642 507.912 210.33 508.85 212.074C507.581 210.973 506.294 209.908 504.988 208.917C504.326 208.421 503.682 207.926 503.002 207.449L500.997 206.054C499.912 204.512 498.771 202.988 497.576 201.52C496.38 200.052 495.148 198.62 493.897 197.243C492.647 195.867 491.249 194.545 489.869 193.297C488.478 192.053 487.016 190.888 485.492 189.81C487.068 190.196 488.621 190.668 490.145 191.223L491.304 191.664L492.463 192.141C493.254 192.453 494.008 192.783 494.78 193.15Z" fill="black"/>
</g>
<path d="M305.577 221.912C304.956 223.05 304.082 224.03 303.02 224.775C301.88 225.675 300.537 226.281 299.342 227.162C299.694 229.082 300.529 230.882 301.769 232.393C302.516 232.501 303.278 232.409 303.976 232.125C304.675 231.841 305.285 231.376 305.742 230.777C306.791 229.502 307.431 227.942 307.582 226.299C307.692 225.638 307.011 224.574 306.735 223.986C306.625 223.748 305.466 221.986 305.503 221.857L305.577 221.912Z" fill="#F4A442"/>
<path d="M416.263 234.962C415.987 232.374 413.577 230.502 411.591 229.034C409.605 227.565 406.974 225.822 404.326 226.244C403.48 226.372 399.066 230.429 399.397 231.2C400.151 233.035 403.866 234.081 405.485 235.183C407.471 236.541 409.31 239 411.646 239.624C412.382 239.808 416.355 235.697 416.263 234.962Z" fill="#F4A442"/>
<path d="M449.406 173.584C447.202 173.816 445.119 174.705 443.428 176.135C441.441 177.231 439.794 178.85 438.665 180.816C439.086 182.874 439.987 184.804 441.295 186.451C443.244 185.882 444.863 183.936 446.518 182.78C448.524 181.826 450.383 180.59 452.036 179.109C452.422 178.613 450.086 173.602 449.498 173.602L449.406 173.584Z" fill="#F4A442"/>
<path d="M529.561 265.156C527.856 266.586 526.641 268.511 526.084 270.662C525.063 272.682 524.617 274.942 524.797 277.197C526.308 278.657 528.141 279.745 530.149 280.372C531.437 278.794 531.676 276.279 532.411 274.407C533.147 272.535 534.618 270.332 534.747 268.258C533.327 266.788 531.535 265.728 529.561 265.193V265.156Z" fill="#F4A442"/>
<path d="M224.778 363.17C224.297 361.013 223.168 359.054 221.541 357.554C220.216 355.713 218.409 354.272 216.318 353.387C214.317 354.032 212.501 355.146 211.021 356.636C211.83 358.472 213.945 359.885 215.269 361.408C216.594 362.932 217.863 365.245 219.647 366.327C220.18 366.658 224.815 363.758 224.778 363.17Z" fill="#F4A442"/>
<path d="M471.79 349.056C470.815 349.459 470.392 350.34 469.858 351.203C469.184 352.05 468.758 353.066 468.626 354.14C468.82 355.287 469.252 356.381 469.895 357.352C470.042 357.664 470.87 359.756 471.275 359.683C472.176 359.555 472.617 357.848 472.967 356.985C473.469 355.909 473.81 354.765 473.978 353.589C473.55 351.951 472.807 350.411 471.79 349.056Z" fill="#F4A442"/>
<g opacity="0.2">
<path opacity="0.2" d="M471.79 349.056C470.815 349.459 470.392 350.34 469.858 351.203C469.184 352.05 468.758 353.066 468.626 354.14C468.82 355.287 469.252 356.381 469.895 357.352C470.042 357.664 470.87 359.756 471.275 359.683C472.176 359.555 472.617 357.848 472.967 356.985C473.469 355.909 473.81 354.765 473.978 353.589C473.55 351.951 472.807 350.411 471.79 349.056Z" fill="black"/>
</g>
<path d="M342.987 322.148C342.012 322.551 341.589 323.432 341.056 324.295C340.379 325.141 339.953 326.158 339.823 327.232C340.017 328.371 340.442 329.458 341.074 330.426C341.24 330.756 342.067 332.848 342.472 332.775C343.373 332.646 343.815 330.939 344.164 330.077C344.667 329.001 345.008 327.857 345.176 326.681C344.748 325.043 344.004 323.503 342.987 322.148Z" fill="#F4A442"/>
<g opacity="0.2">
<path opacity="0.2" d="M342.987 322.148C342.012 322.551 341.589 323.432 341.056 324.295C340.379 325.141 339.953 326.158 339.823 327.232C340.017 328.371 340.442 329.458 341.074 330.426C341.24 330.756 342.067 332.848 342.472 332.775C343.373 332.646 343.815 330.939 344.164 330.077C344.667 329.001 345.008 327.857 345.176 326.681C344.748 325.043 344.004 323.503 342.987 322.148Z" fill="black"/>
</g>
<path d="M358.198 256.676C357.223 257.08 356.8 257.961 356.266 258.824C355.59 259.669 355.163 260.686 355.034 261.76C355.225 262.903 355.658 263.991 356.303 264.954C356.45 265.284 357.278 267.377 357.701 267.303C358.602 267.175 359.025 265.468 359.375 264.605C359.877 263.529 360.218 262.385 360.386 261.21C359.958 259.571 359.215 258.031 358.198 256.676Z" fill="#F4A442"/>
<g opacity="0.2">
<path opacity="0.2" d="M358.198 256.676C357.223 257.08 356.8 257.961 356.266 258.824C355.59 259.669 355.163 260.686 355.034 261.76C355.225 262.903 355.658 263.991 356.303 264.954C356.45 265.284 357.278 267.377 357.701 267.303C358.602 267.175 359.025 265.468 359.375 264.605C359.877 263.529 360.218 262.385 360.386 261.21C359.958 259.571 359.215 258.031 358.198 256.676Z" fill="black"/>
</g>
<path d="M490.624 235.788C487.662 237.991 484.26 241.13 483.267 244.764C483.009 245.663 485.805 249.775 485.658 249.903C486.945 248.508 487.736 246.618 488.913 245.113C490.135 243.549 491.522 242.121 493.051 240.854C493.64 240.359 490.679 235.807 490.697 235.788H490.624Z" fill="#F4A442"/>
<path d="M495.258 306.785C491.801 305.5 487.313 304.362 483.671 305.463C482.77 305.738 480.857 310.309 480.673 310.272C482.512 310.584 484.554 310.272 486.467 310.364C488.444 310.541 490.398 310.922 492.297 311.502C493.033 311.722 495.24 306.766 495.258 306.785Z" fill="#F4A442"/>
<path d="M544.808 187.038C541.644 185.203 537.451 183.202 533.772 183.606C532.834 183.698 530.094 187.827 529.91 187.772C531.749 188.415 533.754 188.415 535.593 188.929C537.505 189.466 539.355 190.204 541.111 191.131C541.81 191.48 544.881 187.02 544.9 187.038H544.808Z" fill="#F4A442"/>
<path d="M450.013 248.453C448.302 245.186 445.727 241.35 442.306 239.716C441.442 239.312 436.954 241.423 436.789 241.258C437.984 242.745 439.731 243.828 441.037 245.223C442.385 246.678 443.575 248.271 444.587 249.977C444.992 250.619 449.958 248.435 449.976 248.453H450.013Z" fill="#F4A442"/>
<path d="M386.816 305.628C387.147 305.5 387.404 304.16 386.816 305.188C386.846 305.333 386.846 305.483 386.816 305.628Z" fill="#F4A442"/>
<path d="M385.363 288.65C384.889 289.878 384.67 291.189 384.72 292.505C385.29 294.964 386.246 297.295 386.559 299.846C386.651 300.489 386.724 301.131 386.761 301.774C387.093 303.436 387.259 305.127 387.258 306.821C388.255 303.264 388.793 299.594 388.858 295.9C388.858 292.908 388.564 287.971 386.301 285.75C386.283 285.658 385.382 288.577 385.363 288.65Z" fill="#F4A442"/>
<path opacity="0.2" d="M385.363 288.65C384.889 289.878 384.67 291.189 384.72 292.505C385.29 294.964 386.246 297.295 386.559 299.846C386.651 300.489 386.724 301.131 386.761 301.774C387.093 303.436 387.259 305.127 387.258 306.821C388.255 303.264 388.793 299.594 388.858 295.9C388.858 292.908 388.564 287.971 386.301 285.75C386.283 285.658 385.382 288.577 385.363 288.65Z" fill="black"/>
<path d="M386.908 303.701C386.908 303.793 386.908 304.637 386.908 305.151C387.423 304.123 387.166 305.463 386.908 305.592C386.938 305.446 386.938 305.296 386.908 305.151C386.908 305.298 386.761 305.463 386.669 305.702C384.6 310.361 381.293 314.366 377.105 317.283C376.369 317.816 376.167 319.871 375.983 320.716C375.891 321.083 375.634 324.203 375.486 324.295C381.813 320.789 385.326 314.383 387.129 307.592C387.129 307.317 387.258 307.042 387.331 306.766C387.333 305.071 387.167 303.381 386.835 301.719C386.871 302.416 386.908 303.077 386.908 303.701Z" fill="#F4A442"/>
<path d="M287.736 321.12C287.736 321.487 289.097 321.946 288.159 321.285C287.92 321.23 287.754 321.175 287.736 321.12Z" fill="#F4A442"/>
<path d="M304.749 322.625C303.619 321.956 302.37 321.514 301.07 321.322C298.532 321.468 296.086 322.001 293.511 321.927C292.867 321.927 292.224 321.927 291.58 321.799C289.885 321.836 288.191 321.706 286.522 321.413C289.86 323.011 293.39 324.177 297.024 324.882C299.967 325.378 304.896 325.965 307.471 324.111C307.545 324.056 304.859 322.661 304.749 322.625Z" fill="#F4A442"/>
<path opacity="0.2" d="M304.749 322.625C303.619 321.956 302.37 321.514 301.07 321.322C298.532 321.468 296.086 322.001 293.511 321.927C292.867 321.927 292.224 321.927 291.58 321.799C289.885 321.836 288.191 321.706 286.522 321.413C289.86 323.011 293.39 324.177 297.024 324.882C299.967 325.378 304.896 325.965 307.471 324.111C307.545 324.056 304.859 322.661 304.749 322.625Z" fill="black"/>
<path d="M289.594 321.542L288.159 321.285C289.097 321.946 287.81 321.487 287.736 321.12C287.736 321.12 287.92 321.23 288.159 321.285L287.663 320.954C283.426 318.107 280.049 314.16 277.896 309.538C277.473 308.73 275.487 308.18 274.696 307.849C274.328 307.684 271.293 306.895 271.238 306.748C273.611 313.576 279.331 318.128 285.713 321.065L286.504 321.413C288.173 321.706 289.867 321.836 291.562 321.799C290.9 321.744 290.238 321.652 289.594 321.542Z" fill="#F4A442"/>
<path d="M166.07 175.346C163.631 177.848 161.668 180.771 160.276 183.973C159.538 185.435 159.03 187.001 158.768 188.617C158.602 190.177 159.54 190.874 160.773 191.627C161.228 191.912 161.701 192.17 162.189 192.398L162.023 192.049C161.866 191.686 161.761 191.303 161.711 190.911H161.6C161.563 190.612 161.563 190.31 161.6 190.012C162.039 187.561 162.878 185.198 164.083 183.018C165.235 180.728 166.622 178.563 168.221 176.557C168.221 176.557 166.29 175.218 166.07 175.346Z" fill="#F4A442"/>
<path d="M179.514 181.954C179.504 182.002 179.504 182.052 179.514 182.101V182.358C179.514 182.578 179.514 182.798 179.514 183C179.016 183.101 178.534 183.268 178.08 183.496C176.42 184.367 174.827 185.361 173.316 186.469C171.753 187.515 170.226 188.598 168.736 189.736C167.458 191.038 165.898 192.031 164.175 192.636C163.507 192.72 162.829 192.605 162.226 192.306L162.06 191.957C161.903 191.594 161.797 191.211 161.747 190.819C162.622 190.454 163.425 189.939 164.12 189.296C166.088 187.754 168.111 186.267 170.171 184.872C171.916 183.503 173.825 182.356 175.854 181.458C176.462 181.261 177.107 181.202 177.741 181.288C178.375 181.374 178.981 181.602 179.514 181.954Z" fill="#F4A442"/>
<path opacity="0.2" d="M179.514 181.954C179.504 182.002 179.504 182.052 179.514 182.101V182.358C179.514 182.578 179.514 182.798 179.514 183C179.016 183.101 178.534 183.268 178.08 183.496C176.42 184.367 174.827 185.361 173.316 186.469C171.753 187.515 170.226 188.598 168.736 189.736C167.458 191.038 165.898 192.031 164.175 192.636C163.507 192.72 162.829 192.605 162.226 192.306L162.06 191.957C161.903 191.594 161.797 191.211 161.747 190.819C162.622 190.454 163.425 189.939 164.12 189.296C166.088 187.754 168.111 186.267 170.171 184.872C171.916 183.503 173.825 182.356 175.854 181.458C176.462 181.261 177.107 181.202 177.741 181.288C178.375 181.374 178.981 181.602 179.514 181.954Z" fill="black"/>
<path d="M181.814 186.653C180.554 188.871 179.159 191.01 177.638 193.058C176.167 195.261 174.732 197.482 173.298 199.703C172.459 200.767 171.806 201.965 171.367 203.245C171.318 203.572 171.341 203.904 171.433 204.221C171.525 204.538 171.684 204.831 171.9 205.081C172.015 205.217 172.144 205.34 172.286 205.448C171.678 205.256 171.106 204.964 170.594 204.585C169.491 203.924 168.313 203.337 168.497 201.869C168.851 200.453 169.531 199.139 170.484 198.033C172.789 194.582 175.07 191.125 177.326 187.662C178.117 186.432 179.68 184.67 179.478 183.037C179.478 182.835 179.478 182.615 179.478 182.394V182.137C179.467 182.089 179.467 182.039 179.478 181.991L180.213 182.413C180.894 182.835 181.795 183.294 182.053 184.083C182.19 184.505 182.239 184.951 182.198 185.392C182.157 185.834 182.026 186.263 181.814 186.653Z" fill="#F4A442"/>
<path d="M190.164 197.243C189.24 200.349 187.574 203.183 185.308 205.503C185.051 205.76 182.568 203.98 182.604 203.906C183.793 202.35 184.851 200.698 185.768 198.969C186.216 198.088 186.609 197.181 186.945 196.252C187.141 195.777 187.265 195.276 187.313 194.765C187.333 194.638 187.333 194.508 187.313 194.38H187.699C187.864 194.362 188.031 194.362 188.196 194.38C188.539 194.453 188.686 194.453 188.637 194.38C188.796 194.362 188.956 194.362 189.115 194.38C189.587 194.67 189.947 195.11 190.138 195.63C190.328 196.15 190.337 196.718 190.164 197.243Z" fill="#F4A442"/>
<path d="M189.115 194.362C188.956 194.344 188.796 194.344 188.637 194.362C188.326 194.316 188.01 194.316 187.699 194.362H187.294C186.908 194.475 186.538 194.635 186.191 194.839C185.352 195.379 184.564 195.993 183.837 196.674L178.999 200.914C177.51 202.346 175.931 203.683 174.272 204.916C174 205.123 173.689 205.272 173.356 205.354C173.024 205.436 172.679 205.449 172.341 205.393C172.199 205.285 172.07 205.162 171.955 205.026C171.739 204.776 171.58 204.483 171.488 204.166C171.396 203.849 171.373 203.517 171.422 203.19C172.286 202.546 173.098 201.834 173.849 201.061L177.914 197.537C179.312 196.326 180.673 195.096 182.089 193.866C182.538 193.41 183.078 193.051 183.673 192.814C184.268 192.577 184.907 192.467 185.547 192.489C186.855 192.824 188.069 193.452 189.097 194.325L189.115 194.362Z" fill="#F4A442"/>
<path opacity="0.2" d="M189.115 194.362C188.956 194.344 188.796 194.344 188.637 194.362C188.326 194.316 188.01 194.316 187.699 194.362H187.294C186.908 194.475 186.538 194.635 186.191 194.839C185.352 195.379 184.564 195.993 183.837 196.674L178.999 200.914C177.51 202.346 175.931 203.683 174.272 204.916C174 205.123 173.689 205.272 173.356 205.354C173.024 205.436 172.679 205.449 172.341 205.393C172.199 205.285 172.07 205.162 171.955 205.026C171.739 204.776 171.58 204.483 171.488 204.166C171.396 203.849 171.373 203.517 171.422 203.19C172.286 202.546 173.098 201.834 173.849 201.061L177.914 197.537C179.312 196.326 180.673 195.096 182.089 193.866C182.538 193.41 183.078 193.051 183.673 192.814C184.268 192.577 184.907 192.467 185.547 192.489C186.855 192.824 188.069 193.452 189.097 194.325L189.115 194.362Z" fill="black"/>
<path d="M188.196 194.288C188.031 194.27 187.864 194.27 187.699 194.288C188.01 194.242 188.326 194.242 188.637 194.288C188.637 194.288 188.545 194.362 188.196 194.288Z" fill="#F4A442"/>
<path d="M186.633 304.197C188.378 302.3 189.767 300.105 190.734 297.717C191.22 296.639 191.543 295.495 191.69 294.322C191.69 293.184 191.01 292.743 190.054 292.266C189.689 292.085 189.315 291.926 188.932 291.789L189.079 292.027C189.214 292.28 189.307 292.553 189.355 292.835H189.447C189.474 293.048 189.474 293.264 189.447 293.477C189.193 295.264 188.64 296.995 187.81 298.598C187.014 300.32 186.033 301.951 184.885 303.462C184.885 303.462 186.467 304.38 186.633 304.197Z" fill="#F4A442"/>
<path d="M176.112 300.214C176.103 300.177 176.103 300.14 176.112 300.103C176.103 300.043 176.103 299.981 176.112 299.92C176.102 299.767 176.102 299.614 176.112 299.461C176.484 299.341 176.846 299.194 177.197 299.021C178.418 298.302 179.592 297.505 180.71 296.634C181.85 295.79 182.972 294.927 184.076 294.046C185.018 293.038 186.165 292.243 187.441 291.715C187.941 291.629 188.454 291.673 188.931 291.844L189.078 292.082C189.214 292.335 189.307 292.608 189.354 292.89C188.707 293.199 188.116 293.615 187.607 294.12C186.172 295.313 184.683 296.488 183.156 297.607C181.872 298.687 180.465 299.612 178.962 300.36C178.504 300.541 178.013 300.621 177.521 300.596C177.029 300.571 176.549 300.44 176.112 300.214Z" fill="#F4A442"/>
<path opacity="0.2" d="M176.112 300.214C176.103 300.177 176.103 300.14 176.112 300.103C176.103 300.043 176.103 299.981 176.112 299.92C176.102 299.767 176.102 299.614 176.112 299.461C176.484 299.341 176.846 299.194 177.197 299.021C178.418 298.302 179.592 297.505 180.71 296.634C181.85 295.79 182.972 294.927 184.076 294.046C185.018 293.038 186.165 292.243 187.441 291.715C187.941 291.629 188.454 291.673 188.931 291.844L189.078 292.082C189.214 292.335 189.307 292.608 189.354 292.89C188.707 293.199 188.116 293.615 187.607 294.12C186.172 295.313 184.683 296.488 183.156 297.607C181.872 298.687 180.465 299.612 178.962 300.36C178.504 300.541 178.013 300.621 177.521 300.596C177.029 300.571 176.549 300.44 176.112 300.214Z" fill="black"/>
<path d="M174.273 296.983C175.147 295.318 176.131 293.712 177.215 292.174C178.245 290.522 179.257 288.852 180.268 287.182C180.864 286.384 181.318 285.49 181.611 284.539C181.634 284.307 181.605 284.072 181.525 283.853C181.446 283.634 181.318 283.436 181.151 283.272C181.055 283.183 180.95 283.103 180.839 283.033C181.307 283.107 181.761 283.256 182.181 283.474C183.064 283.878 184.021 284.245 183.892 285.31C183.669 286.355 183.195 287.331 182.512 288.154C180.894 290.743 179.275 293.349 177.694 295.937C177.123 296.873 176.001 298.213 176.222 299.369C176.213 299.522 176.213 299.675 176.222 299.828C176.213 299.889 176.213 299.951 176.222 300.012C176.214 300.048 176.214 300.086 176.222 300.122L175.652 299.865C175.1 299.59 174.401 299.314 174.125 298.764C174.019 298.474 173.977 298.165 174.003 297.857C174.028 297.55 174.12 297.252 174.273 296.983Z" fill="#F4A442"/>
<path d="M167.431 289.861C168.026 287.556 169.189 285.436 170.815 283.694C170.999 283.492 172.948 284.63 172.912 284.685C172.078 285.851 171.334 287.078 170.686 288.356C170.385 289.008 170.121 289.676 169.895 290.357C169.767 290.705 169.693 291.07 169.675 291.44C169.663 291.531 169.663 291.624 169.675 291.715H169.38H168.994C168.718 291.715 168.608 291.715 168.663 291.715H168.295C167.963 291.548 167.698 291.274 167.541 290.938C167.384 290.602 167.345 290.222 167.431 289.861Z" fill="#F4A442"/>
<path d="M168.332 291.862H168.7C168.938 291.889 169.179 291.889 169.417 291.862H169.711C169.998 291.771 170.27 291.642 170.521 291.477C171.138 291.037 171.716 290.546 172.25 290.008L175.781 286.76C176.871 285.647 178.026 284.599 179.239 283.621C179.653 283.301 180.17 283.144 180.692 283.18C180.804 283.249 180.908 283.329 181.004 283.419C181.171 283.582 181.299 283.781 181.378 284C181.458 284.219 181.487 284.453 181.464 284.685C180.804 285.181 180.188 285.734 179.625 286.337L176.756 289.017C175.744 289.953 174.733 290.853 173.703 291.825C173.37 292.183 172.97 292.472 172.524 292.673C172.079 292.875 171.598 292.986 171.109 293C170.122 292.853 169.18 292.49 168.35 291.936L168.332 291.862Z" fill="#F4A442"/>
<path opacity="0.2" d="M168.332 291.862H168.7C168.938 291.889 169.179 291.889 169.417 291.862H169.711C169.998 291.771 170.27 291.642 170.521 291.477C171.138 291.037 171.716 290.546 172.25 290.008L175.781 286.76C176.871 285.647 178.026 284.599 179.239 283.621C179.653 283.301 180.17 283.144 180.692 283.18C180.804 283.249 180.908 283.329 181.004 283.419C181.171 283.582 181.299 283.781 181.378 284C181.458 284.219 181.487 284.453 181.464 284.685C180.804 285.181 180.188 285.734 179.625 286.337L176.756 289.017C175.744 289.953 174.733 290.853 173.703 291.825C173.37 292.183 172.97 292.472 172.524 292.673C172.079 292.875 171.598 292.986 171.109 293C170.122 292.853 169.18 292.49 168.35 291.936L168.332 291.862Z" fill="black"/>
<path d="M169.031 291.862H169.417C169.179 291.889 168.938 291.889 168.7 291.862C168.7 291.862 168.755 291.825 169.031 291.862Z" fill="#F4A442"/>
<path d="M283.083 279.344C281.93 277.839 280.955 276.207 280.177 274.48C279.33 272.884 278.776 271.15 278.54 269.359C278.512 269.146 278.512 268.93 278.54 268.717H278.632C278.687 268.443 278.78 268.177 278.907 267.928C278.946 267.842 278.995 267.762 279.055 267.689C278.67 267.821 278.295 267.981 277.933 268.166C276.976 268.625 276.222 269.066 276.296 270.204C276.439 271.38 276.768 272.526 277.271 273.599C278.224 275.999 279.614 278.202 281.372 280.097C281.556 280.299 283.101 279.363 283.083 279.344Z" fill="#F4A442"/>
<path d="M291.984 276.169V276.059C291.993 276.004 291.993 275.948 291.984 275.894C292.003 275.735 292.003 275.575 291.984 275.416C291.604 275.319 291.239 275.171 290.899 274.976C289.671 274.268 288.497 273.47 287.386 272.59C286.228 271.764 285.106 270.901 284.002 270.002C283.068 268.989 281.918 268.198 280.636 267.689C280.137 267.593 279.621 267.638 279.146 267.817C279.087 267.89 279.037 267.97 278.999 268.056C278.872 268.305 278.779 268.571 278.723 268.845C279.37 269.157 279.96 269.572 280.471 270.075C281.924 271.286 283.395 272.443 284.922 273.562C286.212 274.643 287.626 275.567 289.134 276.316C289.592 276.496 290.083 276.577 290.575 276.551C291.067 276.526 291.547 276.396 291.984 276.169Z" fill="#F4A442"/>
<path opacity="0.2" d="M291.984 276.169V276.059C291.993 276.004 291.993 275.948 291.984 275.894C292.003 275.735 292.003 275.575 291.984 275.416C291.604 275.319 291.239 275.171 290.899 274.976C289.671 274.268 288.497 273.47 287.386 272.59C286.228 271.764 285.106 270.901 284.002 270.002C283.068 268.989 281.918 268.198 280.636 267.689C280.137 267.593 279.621 267.638 279.146 267.817C279.087 267.89 279.037 267.97 278.999 268.056C278.872 268.305 278.779 268.571 278.723 268.845C279.37 269.157 279.96 269.572 280.471 270.075C281.924 271.286 283.395 272.443 284.922 273.562C286.212 274.643 287.626 275.567 289.134 276.316C289.592 276.496 290.083 276.577 290.575 276.551C291.067 276.526 291.547 276.396 291.984 276.169Z" fill="black"/>
<path d="M293.824 272.902C292.934 271.241 291.945 269.635 290.863 268.093C289.833 266.441 288.84 264.771 287.81 263.1C287.217 262.303 286.768 261.409 286.485 260.457C286.462 260.224 286.493 259.988 286.576 259.768C286.659 259.548 286.791 259.351 286.964 259.191C287.054 259.108 287.153 259.034 287.258 258.97C286.787 259.036 286.333 259.185 285.915 259.411C285.051 259.815 284.076 260.163 284.223 261.246C284.443 262.295 284.909 263.277 285.584 264.11C287.215 266.704 288.821 269.298 290.403 271.892C290.973 272.81 292.095 274.15 291.893 275.306C291.911 275.465 291.911 275.625 291.893 275.783C291.902 275.838 291.902 275.894 291.893 275.949V276.169L292.463 275.912C293.066 275.706 293.596 275.33 293.989 274.829C294.105 274.515 294.151 274.18 294.122 273.847C294.094 273.514 293.992 273.191 293.824 272.902Z" fill="#F4A442"/>
<path d="M300.611 265.78C300 263.481 298.838 261.365 297.226 259.613C297.043 259.429 295.075 260.567 295.111 260.604C295.945 261.77 296.689 262.997 297.337 264.275C297.635 264.928 297.899 265.595 298.128 266.276C298.254 266.63 298.328 267.001 298.348 267.377C298.369 267.461 298.369 267.549 298.348 267.634H298.643H299.029C299.305 267.634 299.415 267.634 299.378 267.634H299.728C300.056 267.462 300.32 267.189 300.48 266.854C300.639 266.52 300.685 266.143 300.611 265.78Z" fill="#F4A442"/>
<path d="M299.691 267.799H299.341C299.098 267.836 298.85 267.836 298.606 267.799H298.311C298.019 267.702 297.74 267.566 297.484 267.395C296.862 266.961 296.283 266.47 295.755 265.927L292.242 262.678C291.147 261.576 289.993 260.534 288.784 259.558C288.581 259.391 288.345 259.265 288.093 259.19C287.84 259.114 287.575 259.09 287.313 259.117C287.208 259.181 287.109 259.254 287.018 259.337C286.846 259.498 286.714 259.695 286.631 259.915C286.548 260.135 286.517 260.37 286.54 260.604C287.192 261.111 287.806 261.663 288.38 262.256L291.359 265.009C292.371 265.945 293.364 266.845 294.394 267.817C294.726 268.175 295.127 268.464 295.572 268.665C296.017 268.867 296.498 268.978 296.987 268.992C297.981 268.839 298.929 268.469 299.764 267.909L299.691 267.799Z" fill="#F4A442"/>
<path opacity="0.2" d="M299.691 267.799H299.341C299.098 267.836 298.85 267.836 298.606 267.799H298.311C298.019 267.702 297.74 267.566 297.484 267.395C296.862 266.961 296.283 266.47 295.755 265.927L292.242 262.678C291.147 261.576 289.993 260.534 288.784 259.558C288.581 259.391 288.345 259.265 288.093 259.19C287.84 259.114 287.575 259.09 287.313 259.117C287.208 259.181 287.109 259.254 287.018 259.337C286.846 259.498 286.714 259.695 286.631 259.915C286.548 260.135 286.517 260.37 286.54 260.604C287.192 261.111 287.806 261.663 288.38 262.256L291.359 265.009C292.371 265.945 293.364 266.845 294.394 267.817C294.726 268.175 295.127 268.464 295.572 268.665C296.017 268.867 296.498 268.978 296.987 268.992C297.981 268.839 298.929 268.469 299.764 267.909L299.691 267.799Z" fill="black"/>
<path d="M298.992 267.781H298.606C298.85 267.818 299.098 267.818 299.342 267.781C299.342 267.781 299.342 267.762 298.992 267.781Z" fill="#F4A442"/>
<path d="M221.578 315.76V315.338C221.394 314.922 221.394 315.063 221.578 315.76Z" fill="#F4A442"/>
<path d="M221.56 314.016C221.614 313.391 221.744 312.775 221.946 312.181C222.402 310.853 223.157 309.648 224.153 308.657C224.645 308.172 225.188 307.742 225.771 307.372C226.452 306.931 226.967 306.454 227.611 305.977C227.611 305.197 227.422 304.428 227.059 303.738C226.663 303.673 226.259 303.673 225.863 303.738C225.551 303.82 225.253 303.95 224.981 304.123C224.368 304.462 223.799 304.875 223.288 305.353C222.35 306.233 221.62 307.312 221.155 308.51C220.393 310.953 220.426 313.575 221.247 315.999C221.297 315.431 221.383 314.867 221.504 314.31C221.504 314.31 221.56 314.108 221.56 314.016Z" fill="#F4A442"/>
<path d="M224.999 322.258C224.992 322.325 224.992 322.392 224.999 322.46V322.239V322.258Z" fill="#F4A442"/>
<path d="M225.772 325.727C225.957 324.086 225.723 322.425 225.091 320.899C225.118 321.272 225.118 321.646 225.091 322.019V322.184C225.091 322.533 225.091 322.606 225.091 322.441V322.588C225.034 323.056 224.91 323.513 224.723 323.946C224.475 324.55 224.147 325.118 223.748 325.635C222.64 326.927 221.408 328.107 220.07 329.159C219.702 329.489 220.861 331.949 220.769 332.004C222.001 331.372 223.085 330.485 223.947 329.403C224.81 328.32 225.432 327.067 225.772 325.727Z" fill="#F4A442"/>
<path d="M225.772 325.727C225.957 324.086 225.723 322.425 225.091 320.899C225.118 321.272 225.118 321.646 225.091 322.019V322.184C225.091 322.533 225.091 322.606 225.091 322.441V322.588C225.034 323.056 224.91 323.513 224.723 323.946C224.475 324.55 224.147 325.118 223.748 325.635C222.64 326.927 221.408 328.107 220.07 329.159C219.702 329.489 220.861 331.949 220.769 332.004C222.001 331.372 223.085 330.485 223.947 329.403C224.81 328.32 225.432 327.067 225.772 325.727Z" fill="#F4A442"/>
<path d="M225.036 322.239V322.056C225.036 322.056 225.036 322.184 225.036 322.239V322.46C225.091 322.661 225.109 322.588 225.036 322.239Z" fill="#F4A442"/>
<path d="M225.036 322.056C225.063 321.683 225.063 321.309 225.036 320.936C224.753 320.179 224.369 319.463 223.896 318.807C223.454 318.22 222.958 317.687 222.498 317.1C222.038 316.513 221.854 315.778 221.449 315.265V315.687C221.265 315.026 221.265 314.879 221.449 315.246C221.449 314.879 221.449 314.549 221.449 314.182C221.328 314.738 221.242 315.302 221.192 315.87C221.475 317.066 221.914 318.22 222.498 319.303C222.823 319.86 223.205 320.383 223.638 320.863C223.914 321.193 224.208 321.487 224.484 321.836L224.742 322.166C224.776 322.244 224.819 322.318 224.87 322.386C224.863 322.319 224.863 322.251 224.87 322.184C224.999 321.872 225.018 321.817 225.036 322.056Z" fill="#F4A442"/>
<path opacity="0.2" d="M225.036 322.056C225.063 321.683 225.063 321.309 225.036 320.936C224.753 320.179 224.369 319.463 223.896 318.807C223.454 318.22 222.958 317.687 222.498 317.1C222.038 316.513 221.854 315.778 221.449 315.265V315.687C221.265 315.026 221.265 314.879 221.449 315.246C221.449 314.879 221.449 314.549 221.449 314.182C221.328 314.738 221.242 315.302 221.192 315.87C221.475 317.066 221.914 318.22 222.498 319.303C222.823 319.86 223.205 320.383 223.638 320.863C223.914 321.193 224.208 321.487 224.484 321.836L224.742 322.166C224.776 322.244 224.819 322.318 224.87 322.386C224.863 322.319 224.863 322.251 224.87 322.184C224.999 321.872 225.018 321.817 225.036 322.056Z" fill="black"/>
<path d="M120.972 700.336L120.621 716.196L135.928 718.336L137.586 701.036L120.972 700.336Z" fill="#B55B52"/>
<path d="M139.204 719.582C139.12 719.561 139.044 719.514 138.988 719.448C138.932 719.381 138.898 719.299 138.892 719.212C138.881 719.128 138.898 719.042 138.941 718.968C138.983 718.895 139.048 718.837 139.126 718.803C139.419 718.667 145.912 715.632 148.876 716.702C149.146 716.793 149.395 716.936 149.609 717.123C149.823 717.31 149.998 717.537 150.124 717.792C150.298 718.071 150.381 718.397 150.36 718.725C150.339 719.053 150.216 719.366 150.007 719.621C149.188 720.516 146.868 720.73 144.664 720.535C142.819 720.387 140.991 720.068 139.204 719.582ZM140.589 719.056C143.865 719.738 148.389 720.088 149.286 719.056C149.403 718.92 149.539 718.687 149.286 718.122C149.215 717.962 149.107 717.821 148.972 717.709C148.837 717.598 148.677 717.52 148.506 717.48C148.256 717.383 147.993 717.324 147.726 717.305C145.257 717.432 142.835 718.026 140.589 719.056Z" fill="#F4A442"/>
<path d="M138.99 719.543C138.93 719.5 138.883 719.44 138.855 719.371C138.827 719.302 138.82 719.227 138.834 719.154C138.834 718.92 139.751 714.191 142.169 712.518C142.511 712.271 142.9 712.097 143.313 712.006C143.726 711.916 144.153 711.911 144.567 711.992C145.718 712.206 146.03 712.81 146.03 713.296C146.244 715.242 141.662 718.823 139.458 719.582H139.263C139.217 719.595 139.169 719.599 139.122 719.592C139.075 719.585 139.03 719.569 138.99 719.543ZM144.216 712.751C143.683 712.708 143.152 712.852 142.715 713.16C141.266 714.586 140.286 716.419 139.907 718.414C142.208 717.305 145.269 714.522 145.25 713.296C145.25 713.199 145.25 712.888 144.45 712.751H144.216Z" fill="#F4A442"/>
<path d="M137.605 716.955L118.105 715.359C117.752 715.33 117.398 715.422 117.104 715.62C116.81 715.818 116.592 716.111 116.487 716.449L111.67 731.919C111.462 732.577 111.524 733.291 111.842 733.904C112.16 734.517 112.708 734.979 113.367 735.189C113.544 735.248 113.727 735.287 113.913 735.306C120.913 735.753 127.173 735.889 135.87 736.609C146.146 737.466 143.436 738.555 155.506 739.645C162.799 740.346 164.808 732.192 161.746 731.53C147.765 728.592 146.653 724.213 141.622 718.706C140.539 717.658 139.112 717.036 137.605 716.955Z" fill="#263238"/>
<path opacity="0.2" d="M136.689 710.377L120.758 709.638L120.933 701.542L137.352 703.605L136.689 710.377Z" fill="black"/>
<path d="M196.105 701.542L197.158 717.383L212.583 718.161L212.72 700.783L196.105 701.542Z" fill="#B55B52"/>
<path d="M215.976 719.056C215.89 719.037 215.812 718.993 215.75 718.932C215.688 718.87 215.645 718.791 215.625 718.706C215.614 718.622 215.628 718.536 215.667 718.459C215.705 718.383 215.765 718.32 215.839 718.278C216.112 718.122 222.313 714.522 225.297 715.32C225.848 715.473 226.321 715.827 226.623 716.312C226.816 716.578 226.921 716.899 226.921 717.227C226.921 717.556 226.816 717.876 226.623 718.142C225.901 719.095 223.62 719.523 221.397 719.523C219.58 719.522 217.766 719.366 215.976 719.056ZM217.341 718.492C220.656 718.881 225.141 718.823 225.979 717.655C226.096 717.5 226.213 717.247 225.979 716.721C225.899 716.566 225.782 716.433 225.64 716.331C225.498 716.23 225.333 716.163 225.16 716.137C224.888 716.109 224.614 716.109 224.341 716.137C221.874 716.485 219.497 717.304 217.341 718.55V718.492Z" fill="#F4A442"/>
<path d="M215.742 719.056C215.682 719.011 215.632 718.952 215.599 718.885C215.565 718.817 215.547 718.743 215.547 718.667C215.547 718.453 216.035 713.647 218.277 711.759C218.601 711.486 218.978 711.282 219.383 711.158C219.789 711.034 220.215 710.994 220.637 711.039C221.807 711.136 222.158 711.72 222.216 712.206C222.606 714.153 218.316 718.045 216.21 719.056C216.153 719.076 216.092 719.076 216.035 719.056C215.939 719.085 215.837 719.085 215.742 719.056ZM220.364 711.837C219.83 711.839 219.314 712.024 218.901 712.362C217.577 713.909 216.76 715.825 216.561 717.85C218.765 716.527 221.553 713.491 221.436 712.284C221.436 712.168 221.436 711.876 220.598 711.817L220.364 711.837Z" fill="#F4A442"/>
<path d="M214.143 716.643L194.643 716.76C194.286 716.757 193.94 716.878 193.663 717.101C193.385 717.325 193.194 717.638 193.122 717.986L189.69 733.827C189.544 734.494 189.666 735.193 190.031 735.772C190.395 736.35 190.973 736.763 191.64 736.921C191.821 736.95 192.005 736.95 192.186 736.921C199.206 736.746 205.446 736.317 214.182 736.278C224.497 736.278 221.884 737.466 234.013 737.563C241.326 737.563 242.613 729.312 239.512 728.923C225.316 727.23 223.912 722.968 218.316 717.947C217.13 717.021 215.646 716.558 214.143 716.643Z" fill="#263238"/>
<path opacity="0.2" d="M212.641 710.163L196.71 710.825L196.183 702.749L212.7 703.372L212.641 710.163Z" fill="black"/>
<path d="M158.861 391.661L184.503 562.909L191.562 706.368L215.586 703.8C215.586 703.8 220.929 632.167 218.063 556.838C215.508 488.728 204.803 417.679 203.457 394.989L194.819 379.188L177.132 381.133L158.861 391.661Z" fill="#F4A442"/>
<g opacity="0.1">
<path opacity="0.1" d="M158.861 391.661L184.503 562.909L191.562 706.368L215.586 703.8C215.586 703.8 220.929 632.167 218.063 556.838C215.508 488.728 204.803 417.679 203.457 394.989L194.819 379.188L177.132 381.133L158.861 391.661Z" fill="white"/>
</g>
<path d="M134.31 390.688L116.916 703.994L140.082 705.259C140.082 705.259 175.026 452.279 179.862 404.233L170.346 383.975L153.303 383.041L134.31 390.688Z" fill="#F4A442"/>
<g opacity="0.1">
<path opacity="0.1" d="M134.31 390.688L116.916 703.994L140.082 705.259C140.082 705.259 175.026 452.279 179.862 404.233L170.346 383.975L153.303 383.041L134.31 390.688Z" fill="white"/>
</g>
<path opacity="0.2" d="M171.243 474.327L177.951 519.066L173.778 440.506L171.243 474.327Z" fill="black"/>
<path d="M238.888 340.54C234.47 338.053 230.193 335.325 226.077 332.367L235.339 320.983L239.239 322.929L248.346 281.031L249.672 275.193C249.672 275.193 257.472 273.383 257.608 282.199L257.238 308.937C257.238 309.813 257.238 310.669 257.238 311.486C256.36 331.588 248.755 343.848 243.705 342.525C242.086 342.045 240.524 341.392 239.044 340.579" fill="#B55B52"/>
<path d="M244.192 260.987L250.647 256.862C251.817 263.731 258.135 269.316 262.951 272.644C265.252 274.24 266.013 277.723 264.297 278.813L260.124 281.498C255.034 284.748 244.192 260.987 244.192 260.987Z" fill="#F4A442"/>
<path d="M241.657 262.622L256.399 253.184C258.698 251.697 260.316 249.364 260.9 246.693C261.485 244.021 260.988 241.228 259.519 238.92C258.029 236.626 255.691 235.011 253.015 234.428C250.338 233.845 247.539 234.34 245.226 235.806L230.484 245.264C228.178 246.74 226.554 249.07 225.969 251.742C225.384 254.413 225.886 257.206 227.364 259.509C228.847 261.811 231.186 263.432 233.865 264.016C236.545 264.599 239.348 264.098 241.657 262.622Z" fill="#F4A442"/>
<path opacity="0.3" d="M241.657 262.622L256.399 253.184C258.698 251.697 260.316 249.364 260.9 246.693C261.485 244.021 260.988 241.228 259.519 238.92C258.029 236.626 255.691 235.011 253.015 234.428C250.338 233.845 247.539 234.34 245.226 235.806L230.484 245.264C228.178 246.74 226.554 249.07 225.969 251.742C225.384 254.413 225.886 257.206 227.364 259.509C228.847 261.811 231.186 263.432 233.865 264.016C236.545 264.599 239.348 264.098 241.657 262.622Z" fill="black"/>
<path d="M286.469 248.689L259.071 259.08C256.887 260.482 238.772 232.323 240.956 230.922L261.86 210.411L286.469 248.689Z" fill="#F4A442"/>
<path d="M272.156 230.824C278.942 241.391 285.357 249.389 286.469 248.689C287.58 247.988 282.959 238.822 276.173 228.256C269.387 217.689 262.971 209.691 261.86 210.411C260.748 211.131 265.389 220.258 272.156 230.824Z" fill="#F4A442"/>
<path opacity="0.3" d="M272.156 230.824C278.942 241.391 285.357 249.389 286.469 248.689C287.58 247.988 282.959 238.822 276.173 228.256C269.387 217.689 262.971 209.691 261.86 210.411C260.748 211.131 265.389 220.258 272.156 230.824Z" fill="black"/>
<path d="M278.786 227.711C277.128 225.123 273.462 224.111 272.234 224.909C271.005 225.706 271.356 228.431 273.014 231.019C274.671 233.607 277.031 235.047 278.259 234.269C279.085 233.401 279.588 232.276 279.684 231.083C279.779 229.889 279.462 228.699 278.786 227.711Z" fill="#F4A442"/>
<path d="M247.722 282.841L248.463 277.198C248.901 273.723 250.414 270.472 252.792 267.896L256.107 264.315C256.26 264.146 256.446 264.009 256.652 263.911C256.859 263.814 257.083 263.758 257.311 263.747C257.539 263.736 257.768 263.771 257.983 263.848C258.198 263.926 258.395 264.045 258.564 264.198C262.027 267.184 264.734 270.945 266.461 275.174C266.636 275.71 266.668 276.282 266.555 276.835C266.442 277.387 266.188 277.901 265.818 278.326L258.622 285.877C257.511 287.2 256.048 288.076 254.586 287.142L247.722 282.841Z" fill="#B55B52"/>
<path d="M257.16 308.976V311.545C257.121 310.708 257.14 309.852 257.16 308.976Z" fill="#B25B52"/>
<path d="M206.051 413.534C205.475 407.772 205.403 401.97 205.836 396.195C211.413 341.338 210.926 307.341 210.614 297.67C210.594 296.814 210.315 295.984 209.813 295.29C209.312 294.595 208.612 294.068 207.806 293.778C169.937 280.156 140.55 286.441 131.054 289.185C130.13 289.451 129.323 290.02 128.764 290.801C128.205 291.581 127.926 292.527 127.973 293.486C128.792 309.774 132.38 383.002 132.146 409.448C132.146 413.34 131.522 422.642 131.171 427.799C131.104 428.813 131.404 429.819 132.016 430.632C132.627 431.446 133.51 432.015 134.505 432.235C143.027 434.181 164.399 438.073 171.399 430.834C172.164 430.051 173.208 429.601 174.304 429.583C175.4 429.565 176.458 429.98 177.249 430.737C179.823 433.072 184.133 435.291 191.172 435.174C197.88 435.077 202.307 434.746 205.134 434.415C205.716 434.344 206.277 434.153 206.782 433.854C207.287 433.556 207.724 433.157 208.067 432.681C208.409 432.206 208.649 431.665 208.772 431.093C208.895 430.52 208.898 429.929 208.781 429.355C207.767 424.549 206.304 416.94 206.051 413.534Z" fill="#263238"/>
<path d="M178.497 287.55L175.903 264.49L159.64 258.497L158.139 286.616L165.49 293.797L174.226 293.894L180.466 287.803L178.497 287.55Z" fill="#B55B52"/>
<path d="M182.046 286.071C181.91 287.258 179.082 317.441 174.246 360.272L153.186 284.826L154.434 284.631L168.26 292.415L172.589 292.649L181.013 285.76H181.13L182.046 286.071Z" fill="white"/>
<path d="M156.462 284.281L171.068 292.649L164.301 300.627L153.108 284.845L156.462 284.281Z" fill="#F4A442"/>
<path opacity="0.7" d="M156.462 284.281L171.068 292.649L164.301 300.627L153.108 284.845L156.462 284.281Z" fill="white"/>
<path d="M182.046 286.052V286.071L176.216 301.289L170.697 293.096L170.365 292.61L170.619 292.376L179.024 285.41L180.935 285.818L181.052 285.838L182.046 286.052Z" fill="#F4A442"/>
<path opacity="0.7" d="M182.046 286.052V286.071L176.216 301.289L170.697 293.096L170.365 292.61L170.619 292.376L179.024 285.41L180.935 285.818L181.052 285.838L182.046 286.052Z" fill="white"/>
<path opacity="0.1" d="M158.919 271.574C161.668 276.264 168.162 280.506 177.951 282.744L176.43 269.822L159.484 263.556L158.919 271.574Z" fill="black"/>
<path d="M245.733 288.193L245.909 281.381C251.399 280.525 257.011 281.784 261.606 284.904L257.706 291.754L245.733 288.193Z" fill="#F4A442"/>
<path opacity="0.8" d="M245.733 288.193L245.909 281.381C251.399 280.525 257.011 281.784 261.606 284.904L257.706 291.754L245.733 288.193Z" fill="white"/>
<path d="M203.964 240.73C203.262 243.396 200.396 245.672 197.763 244.797C198.38 245.295 198.865 245.938 199.175 246.667C199.484 247.397 199.609 248.191 199.538 248.981C199.33 249.543 198.942 250.021 198.434 250.341C197.927 250.661 197.328 250.806 196.73 250.751C197.161 252.002 197.246 253.346 196.975 254.641C196.704 255.936 196.087 257.134 195.189 258.107C194.216 259.171 192.995 259.98 191.635 260.462C190.275 260.944 188.817 261.084 187.389 260.871C187.389 263.79 183.957 266.534 181.286 265.385C177.386 267.215 174.792 269.277 170.931 271.223C172.043 262.33 164.184 271.223 159.972 271.223C156.072 269.277 153.479 267.215 149.618 265.385C146.927 266.534 143.456 263.79 143.495 260.871C142.067 261.081 140.61 260.939 139.25 260.457C137.89 259.975 136.67 259.169 135.695 258.107C134.801 257.132 134.186 255.934 133.915 254.64C133.644 253.346 133.727 252.003 134.154 250.751C133.559 250.804 132.962 250.66 132.458 250.339C131.954 250.019 131.57 249.541 131.366 248.981C131.296 248.193 131.419 247.401 131.725 246.672C132.03 245.943 132.509 245.299 133.121 244.797C130.488 245.672 127.622 243.396 126.939 240.73C126.467 237.974 126.948 235.139 128.304 232.693C129.767 229.521 132.204 226.563 135.695 227.205C135.432 226.602 135.353 225.936 135.467 225.289C135.582 224.642 135.885 224.042 136.338 223.566C137.255 222.632 139.439 221.62 140.628 222.126C140.136 220.544 140.057 218.863 140.398 217.242C140.74 215.621 141.49 214.114 142.578 212.863C144.054 211.571 145.792 210.611 147.673 210.051C149.554 209.49 151.534 209.341 153.479 209.613C153.121 208.138 153.204 206.59 153.716 205.161C154.229 203.732 155.149 202.484 156.363 201.57C157.577 200.656 159.033 200.116 160.551 200.017C162.069 199.917 163.582 200.263 164.906 201.012L165.354 201.265L165.783 201.012C167.106 200.263 168.62 199.917 170.138 200.017C171.656 200.116 173.111 200.656 174.325 201.57C175.54 202.484 176.46 203.732 176.972 205.161C177.485 206.59 177.567 208.138 177.21 209.613C179.157 209.338 181.141 209.485 183.026 210.046C184.911 210.607 186.652 211.568 188.13 212.863C189.218 214.114 189.969 215.621 190.31 217.242C190.651 218.863 190.572 220.544 190.08 222.126C191.27 221.581 193.454 222.632 194.37 223.566C194.827 224.04 195.133 224.638 195.251 225.286C195.369 225.933 195.293 226.6 195.033 227.205C198.465 226.563 200.883 229.521 202.404 232.693C203.817 235.12 204.366 237.952 203.964 240.73Z" fill="#263238"/>
<path d="M148.779 242.111C149.52 256.239 149.559 262.213 156.579 269.511C167.226 280.506 184.445 276.478 187.955 262.427C191.094 249.778 189.339 228.723 175.514 223.079C172.477 221.801 169.163 221.319 165.887 221.679C162.612 222.04 159.483 223.23 156.798 225.137C154.113 227.044 151.961 229.605 150.547 232.576C149.134 235.547 148.505 238.829 148.721 242.111H148.779Z" fill="#B55B52"/>
<path d="M171.301 245.984C171.301 247.151 171.906 248.086 172.647 248.105C173.388 248.124 174.012 247.171 174.031 246.023C174.051 244.875 173.427 243.94 172.686 243.921C171.945 243.902 171.36 244.913 171.301 245.984Z" fill="#263238"/>
<path d="M184.308 246.178C184.308 247.346 184.913 248.28 185.654 248.28C186.395 248.28 187.019 247.365 187.038 246.217C187.058 245.069 186.434 244.116 185.693 244.135C184.952 244.155 184.328 244.991 184.308 246.178Z" fill="#263238"/>
<path d="M180.271 248.124C181.289 250.752 182.653 253.232 184.327 255.5C183.733 255.907 183.058 256.182 182.349 256.306C181.639 256.43 180.91 256.401 180.213 256.22L180.271 248.124Z" fill="#C13B37"/>
<path d="M165.939 242.773C166.077 242.808 166.222 242.796 166.353 242.74C166.483 242.684 166.591 242.586 166.66 242.462C167.334 241.591 168.181 240.869 169.147 240.34C170.113 239.811 171.179 239.486 172.276 239.387C172.456 239.367 172.62 239.279 172.737 239.142C172.853 239.004 172.911 238.827 172.9 238.647C172.896 238.559 172.873 238.473 172.833 238.394C172.794 238.316 172.739 238.246 172.671 238.189C172.603 238.133 172.525 238.091 172.44 238.066C172.355 238.041 172.266 238.033 172.179 238.044C170.861 238.151 169.582 238.542 168.43 239.19C167.279 239.839 166.282 240.729 165.51 241.8C165.465 241.876 165.436 241.961 165.425 242.049C165.413 242.136 165.419 242.225 165.443 242.311C165.467 242.396 165.507 242.476 165.562 242.545C165.617 242.614 165.686 242.672 165.763 242.714C165.814 242.752 165.876 242.773 165.939 242.773Z" fill="#263238"/>
<path d="M188.266 240.71C188.386 240.733 188.51 240.726 188.626 240.688C188.742 240.651 188.846 240.585 188.929 240.496C189.055 240.369 189.125 240.198 189.125 240.019C189.125 239.841 189.055 239.67 188.929 239.543C188.155 238.778 187.203 238.216 186.159 237.907C185.115 237.598 184.01 237.552 182.943 237.772C182.86 237.788 182.781 237.82 182.711 237.868C182.642 237.915 182.582 237.976 182.536 238.047C182.491 238.118 182.46 238.197 182.446 238.281C182.432 238.364 182.436 238.449 182.456 238.531C182.478 238.615 182.517 238.695 182.571 238.764C182.624 238.833 182.691 238.891 182.767 238.935C182.843 238.978 182.928 239.006 183.015 239.017C183.102 239.028 183.19 239.021 183.275 238.998C184.116 238.864 184.977 238.928 185.79 239.185C186.602 239.442 187.343 239.884 187.954 240.477C188.036 240.581 188.143 240.661 188.266 240.71Z" fill="#263238"/>
<path d="M181.636 260.579C181.068 262.354 180.631 264.169 180.33 266.008H179.335C174.87 266.008 172.822 264.451 171.886 262.817C171.458 261.999 171.224 261.093 171.204 260.17C171.19 259.647 171.242 259.124 171.36 258.613C174.107 259.874 177.092 260.538 180.115 260.559C181.051 260.598 181.636 260.579 181.636 260.579Z" fill="#263238"/>
<path d="M180.115 260.54L179.686 262.136C175.474 262.136 172.51 261.454 171.204 260.19C171.19 259.666 171.242 259.143 171.36 258.633C174.11 259.88 177.095 260.531 180.115 260.54Z" fill="white"/>
<path d="M179.336 266.008C174.87 266.008 172.822 264.451 171.886 262.817C173.585 262.867 175.262 263.216 176.839 263.848C177.875 264.294 178.747 265.048 179.336 266.008Z" fill="#DE5753"/>
<path d="M170.443 256.57C171.051 257.806 172.053 258.806 173.292 259.412C174.531 260.018 175.937 260.196 177.288 259.917C177.751 259.886 178.191 259.706 178.542 259.404C178.894 259.103 179.138 258.695 179.238 258.244C177.97 257.913 176.293 258.73 174.85 258.535C173.739 258.399 170.989 257.738 170.443 256.57Z" fill="#263238"/>
<path d="M187.915 258.263C187.074 259.348 185.899 260.126 184.57 260.478C183.241 260.83 181.833 260.735 180.564 260.209C180.143 260.076 179.772 259.819 179.501 259.472C179.229 259.124 179.07 258.703 179.043 258.263C180.369 258.263 181.851 259.314 183.294 259.411C184.425 259.431 187.155 259.294 187.915 258.263Z" fill="#263238"/>
<path d="M144.84 252.95C145.716 255.486 147.549 257.581 149.949 258.788C153.166 260.306 155.409 257.601 155.038 254.215C154.687 251.199 152.601 246.743 149.188 246.548C148.417 246.531 147.655 246.709 146.971 247.065C146.287 247.421 145.704 247.943 145.276 248.583C144.849 249.224 144.59 249.962 144.524 250.728C144.458 251.495 144.587 252.266 144.898 252.97L144.84 252.95Z" fill="#B55B52"/>
<path d="M69.336 325.147C65.371 321.638 61.6142 317.902 58.0845 313.958C56.6819 311.928 55.4988 309.756 54.555 307.477L48.705 307.205C48.705 307.205 38.0385 310.104 40.32 316.585C42.6015 323.065 64.539 331.802 64.539 331.802L69.336 325.147Z" fill="#B55B52"/>
<path d="M76.6096 327.599C76.6096 327.599 71.793 322.831 68.0685 322.033C66.7702 325.829 64.2375 329.083 60.873 331.277L69.4921 336.94L76.6096 327.599Z" fill="#F4A442"/>
<path opacity="0.8" d="M76.6096 327.599C76.6096 327.599 71.793 322.831 68.0685 322.033C66.7702 325.829 64.2375 329.083 60.873 331.277L69.4921 336.94L76.6096 327.599Z" fill="white"/>
<path d="M132.048 288.99C132.048 288.99 150.768 288.796 125.847 335.169C120.777 344.607 111.378 367.045 86.1644 351.418L65.6504 336.064C65.6504 336.064 72.6509 331.374 74.3474 324.797C74.3474 324.797 91.8974 331.569 103.149 335.461C103.149 335.461 108.277 314.6 116.155 300.589C116.155 300.55 120.036 293.019 132.048 288.99Z" fill="#263238"/>
<path d="M243.549 342.564C238.81 341.688 231.03 335.597 230.523 335.208C217.926 328.008 204.451 314.074 204.451 314.074L205.602 293.019C218.641 298.927 230.389 307.338 240.175 317.772L246.688 288.484C254.488 286.285 257.725 291.773 257.725 291.773C257.725 291.773 257.374 295.957 256.789 317.908C256.204 339.859 248.443 343.478 243.549 342.564Z" fill="#263238"/>
<path d="M147.96 246.743C148.709 251.401 150.787 255.746 153.946 259.256C155.175 258.01 156.306 256.901 157.554 255.675C155.343 254.111 153.587 251.991 152.463 249.53C151.34 247.069 150.89 244.355 151.158 241.664C150.417 241.391 149.208 241.547 148.467 241.274C147.9 243.038 147.727 244.905 147.96 246.743Z" fill="#263238"/>
<path d="M143.202 238.005C143.202 239.554 143.818 241.038 144.915 242.133C146.012 243.228 147.5 243.843 149.052 243.843C150.603 243.843 152.091 243.228 153.188 242.133C154.286 241.038 154.902 239.554 154.902 238.005C155.564 238.533 156.369 238.851 157.214 238.917C158.059 238.983 158.904 238.794 159.64 238.375C160.363 237.978 160.941 237.364 161.291 236.619C161.641 235.874 161.746 235.038 161.59 234.23C163.695 234.323 165.757 233.619 167.363 232.258C168.969 230.897 170 228.981 170.248 226.894C172.198 228.392 173.778 227.925 175.221 225.959C175.277 226.721 175.5 227.461 175.874 228.128C176.247 228.794 176.762 229.371 177.383 229.818C178.003 230.265 178.714 230.571 179.466 230.715C180.218 230.858 180.992 230.836 181.734 230.649C181.715 231.677 181.905 232.697 182.29 233.65C182.675 234.603 183.249 235.468 183.977 236.195C184.705 236.921 185.573 237.494 186.527 237.878C187.482 238.263 188.505 238.452 189.534 238.433C189.614 238.95 189.797 239.445 190.073 239.889C190.348 240.333 190.711 240.718 191.138 241.019C191.566 241.32 192.05 241.533 192.562 241.644C193.073 241.754 193.602 241.761 194.116 241.664C194.467 240.263 194.857 238.492 195.208 237.091C190.251 233.321 185.898 228.82 182.299 223.741C180.349 221.114 176.449 219.849 173.446 218.487C166.933 215.685 159.075 217.922 153.654 222.379C148.233 226.835 143.143 238.959 143.202 238.005Z" fill="#263238"/>
</svg>
